<svg xmlns="http://www.w3.org/2000/svg" version="1.1" width="600px" height="600px" viewBox="0 0 200 200" style="overflow:hidden!important;"><g id="svga-group-wrapper"><g id="svga-group-backs-single"></g><g id="svga-group-humanwrap-move" transform="matrix(1,0,0,1,0,-6)"><g id="svga-group-humanwrap" transform="matrix(0.9499998000000001,0,0,0.9499998000000001,5.103838545765683,5.777958330551897)"><g id="svga-group-hair-back-move" transform="matrix(0.9986295346632303,0.05233595798588117,-0.05233595798588117,0.9986295346632303,7.202400861770926,-5.048582978124216)"><g id="svga-group-hair-back"><path id="SvgjsPath27118" d="M145.2 113.8c3.9-1.4 4.8-8.7-.5-10.6-14.9-5.5-32.1-3.3-47.6-3.1-8.5.1-17 .3-25.5.4-4.2.1-8.5.1-12.7.2-2.8 0-5.6-.1-8 1.6-3.8 2.8-3 6.4-.6 9.1 0 .1 0 .2.1.3 1.7 4.9 1.7 9.8 2.2 14.9.4 4.3 1.2 8.1 5.7 9.5 1.2.4 2.4.7 3.7 1-.1.1-.1.3-.2.4-.3.5-.5 1.1-.4 1.8.2 3 2.8 5.2 5.7 4.4 2.4 1.7 5.8 2 8.4.4.8-.5 1.3-1 1.8-1.6h.3c.1.9.3 1.7.8 2.4.1.1.1.3.2.4.8 1.2 2 1.8 3.3 1.8 1.3.1 2.7-.3 3.7-1.1.9 1.8 3 3.1 5.4 2.8.4-.1.8-.1 1.1-.3 2.1.2 4.2-.8 5.8-2.3.4-.1.7-.3 1.1-.5.1.1.1.2.2.3 1 1.2 2.7 2.2 4.3 2.3 2.3.1 4-1.1 5-2.8.1-.1.3-.2.4-.3.3.6.8 1 1.3 1.4.9 1.6 2.8 2.6 4.7 2.1 2.3-.6 4.6-1.9 5.7-3.9 1.5.8 3.6.7 4.8-.6l.3-.3c1.3.4 2.5.3 3.5-.1.3.3.6.5 1 .7 2.8 1.6 6.5.1 7.2-3.1 0-.1 0-.2.1-.4 2-.1 4-1.5 4.2-4.6.1-.9-.1-1.8-.3-2.5 1.9-2.3 3.3-5 4.2-7.4 1.5-3.9 1.9-8.8-.5-12.2 0-.1 0-.3.1-.5z" fill="#130f04" stroke-width="none" opacity="1" stroke="none"></path><path id="SvgjsPath27119" d="m82.4 113.3-.1-.2c-1 .3-2 1-2.7 1.9-.7.9-1.2 2-1.5 3.1-.2 1.1-.2 2.3.2 3.5.4 1.2 1.1 2 1.5 2.8.2.4.3.9.3 1.3-.1.4-.2.9-.5 1.3-.6.8-1.4 1.6-1.8 2.7-.4 1.1-.5 2.3-.2 3.5.2.7.5 1.4 1 2-.7.4-1.3 1-1.8 1.8-.4.6-.6 1.5-.4 2.3.1.7.4 1.2.5 1.6.1.3.1.8 0 1.2-.1.5-.3 1-.4 1.6-.1.6 0 1.3.2 1.9.2.6.8 1.1 1.4 1.1v-.2c-.5-.2-.7-.7-.7-1.1 0-.5.1-.9.2-1.4.2-.5.5-.9.7-1.5.2-.6.4-1.2.4-2-.1-.7-.3-1.3-.3-1.6 0-.3.1-.6.2-.9.4-.6 1.2-1.2 2.1-1.8l1.4-.9-1.3-.8c-.7-.4-1.2-1.1-1.6-2-.3-.8-.5-1.8-.4-2.7.1-.9.7-1.8 1.3-2.7.3-.5.6-1 .7-1.6.1-.6.1-1.2 0-1.7-.2-1.1-.7-2.1-.8-3-.1-.9-.2-1.8-.1-2.7.2-1.5 1.1-3.3 2.5-4.8zm51.7 26.1c-.2-.2-.5-.4-.8-.5 1.2-1.3 1.8-3.1 1.4-4.9-.2-1.2-.9-2.2-1.8-3-.2-.2-.5-.4-.8-.6 1-.9 1.6-2.2 1.6-3.5 0-1.8-1-3.4-2.4-4.3 1.2-1.6 1.7-3.7 1.1-5.6-.6-2.1-2.4-3.7-4.4-4.3.7-.8 1.3-1.6 1.9-2.4.7-1 1.2-2.2 1.4-3.5.1-1.4-.5-2.7-1.4-3.7-.5-.5-1.1-.9-1.8-1.1.4-.7.8-1.4 1.1-2.2.5-1.5.6-3.1.3-4.6-.3-1.5-1-2.9-2-4.1-1-1.1-2.2-2-3.6-2.5l-.1.2c1.2.8 2.2 1.8 2.9 2.9.7 1.1 1.2 2.4 1.3 3.7.2 1.3 0 2.6-.5 3.8-.4 1.2-1.1 2.3-2 3.2l1.1 1.4c.6-.4 1.5-.2 2.3.3.8.6 1.4 1.6 1.4 2.6.1 1.1-.3 2.2-.9 3.2-.6 1-1.3 1.9-2.1 2.8l-.4.4.6.1c2 .4 3.6 2.2 3.9 4.1.3 1.9-.6 3.9-2.1 4.9l-1.4 1 1.7.5c1.3.4 2.2 1.8 2.1 3.1-.1 1.3-1.2 2.5-2.4 2.8l-6.3 1.3c-.3-.5-.7-.9-1.2-1.2-.4-.3-.8-.5-1.2-.6 1-1.7 1.1-3.8.2-5.4-.6-1.1-1.5-1.9-2.5-2.5-.7-.3-1.4-.6-2.2-.6.8-.5 1.6-1.1 2.3-1.8 1-.9 1.8-2.2 2.2-3.6.2-.7.2-1.5.1-2.3-.2-.8-.5-1.6-1.1-2.1-.6-.6-1.3-1-2.1-1.2h-.2c.6-.9.9-2 1-3 .1-1.8-.4-3.6-1.6-4.8l-.2.1c.7 1.4.9 3 .5 4.5-.3 1.4-1.1 2.7-2.3 3.5l-6.7 4.6 7.6-3.1c.8-.3 1.9 0 2.7.7.7.7 1.1 1.8 1 2.9-.1 1.2-.6 2.3-1.4 3.3-.8 1-1.9 1.7-3 2.4l-1.3.8 1.5-.2c1-.1 2 .2 2.8.7.8.6 1.5 1.3 1.8 2.2.6 1.8-.1 3.8-1.4 4.9l-2.2 1.7h2.8c.6 0 1.2.2 1.7.6.5.4.8 1 1 1.5.3 1.1-.4 2.6-1.4 3.1l.7 1.9c.7-.2 1.5-.1 2.2.3.7.4 1.3 1.1 1.4 1.9.3 1.6-1.2 3.7-3.3 3.8v.2c1.1.3 2.3-.1 3.2-.9.9-.7 1.6-1.9 1.5-3.2 0-1.3-.8-2.5-1.8-3.3-.3-.2-.7-.5-1.1-.6.7-1.1 1-2.4.7-3.7-.1-.5-.3-.9-.6-1.3l6.3.7c.7.1 1.4.4 2 .9s1 1.2 1.2 1.9c.4 1.4-.3 3.3-1.6 4.2l-3.2 2.1 3.6-.7c.5-.1 1.1 0 1.6.4.5.3.9.8 1 1.4.1.6 0 1.3-.3 1.8-.4.6-.9 1-1.6 1.2v.2c.8 0 1.5-.4 2.1-1.1.5-.6.9-1.4.8-2.3.3-1-.2-1.8-.9-2.4zM87.6 78.5c-1.8.4-3.4 1.4-4.6 2.9-1.2 1.5-1.6 3.5-1.5 5.3.1 1.2.4 2.4 1 3.5-1.2 0-2.3.1-3.5.4-1.8.5-3.5 1.5-4.7 2.9-1.2 1.5-1.7 3.4-1.6 5.2.1.9.3 1.8.7 2.6.2.3.4.7.7 1-1.3-.3-2.7-.2-4.1.1-.2 0-.3.1-.4.2.1-.5.2-1 .3-1.4.4-1.5 1.2-3 2.6-4l-.1-.2c-1.7.5-3.1 2.1-3.8 3.7-.4.9-.6 1.8-.8 2.7-1 .6-1.8 1.3-2.5 2.2-1.2 1.6-1.6 3.7-1.4 5.6.1 1.3.6 2.7 1.3 3.8-.7.2-1.4.5-2 .9-1.1.8-2 2-2.2 3.5s.2 2.9 1 4c.4.5.8 1 1.4 1.4-1.5 1.2-2.5 3-2.6 4.9-.2 2.3.8 4.5 2.4 6-.5.4-.9.8-1.2 1.3-.5.8-.7 1.7-.8 2.6 0 .9.2 1.8.5 2.6.4.8 1 1.5 1.8 1.8l.1-.2c-1.4-.9-1.8-2.7-1.6-4.1.1-.8.4-1.5.8-2.1.4-.6 1-1 1.7-1.2l1.3-.4-1.1-.9c-1.6-1.2-2.5-3.4-2.2-5.3.3-1.9 1.7-3.7 3.5-4.3l2.4-.9c0 .3-.1.6-.2.9-.3.7-.8 1.3-1.4 2.2-.6 1-.8 2.1-.7 3.2.2 1.6 1 3.2 2.3 4.2-1.1 1-1.7 2.4-1.7 3.8 0 1 .3 1.9.8 2.7.5.8 1.3 1.4 2.1 1.7l.1-.2c-1.3-1-1.9-2.7-1.7-4.2s1.3-2.6 2.6-3l2.4-.8-2.4-1.1c-1.3-.6-2.2-2-2.4-3.4-.1-.7 0-1.4.3-2.1.3-.7 1-1.5 1.3-2.6.2-.6.2-1.2.2-1.7-.1-.6-.3-1.1-.5-1.5-.4-.9-1-1.7-1.5-2.4-.4-.7-.7-1.6-.7-2.4 0-.5.2-1 .5-1.3l1.8.2-.8-.7v-.2c-.1-1.7.1-3.4.2-5.1.1-1.7.1-3.4.1-5.1 0-.8 0-1.6.1-2.4.3-.1.5-.2.8-.3 1.6-.6 3.5-.6 5 .1l.3-.6c-1.4-.8-2.2-2.5-2.2-4.1-.1-1.6.6-3.3 1.7-4.4 1.1-1.1 2.7-1.8 4.2-2.1 1.6-.3 3.2-.3 4.8 0l2.7.4-1.9-2c-2.1-2.1-2.5-5.9-.8-8.5.8-1.3 2.2-2.3 3.7-2.8 1.5-.6 3.2-.6 4.9-.1l.1-.2c-1.2-.4-3.1-.6-4.9-.2zm-20.1 42.7c.5 1.1 1 2.2 1.2 3.2l-2.6-.6c-.8-.2-1.6-.7-2.1-1.5-.5-.7-.8-1.7-.7-2.5.1-.8.6-1.7 1.3-2.2s1.6-.9 2.5-.8h.4c-.3.4-.4.9-.5 1.3-.1 1.2.1 2.2.5 3.1zm.6-10c.2 1.6.4 3.2.5 4.8l-.8-.7c-1.2-1-1.9-2.5-2.2-4.1-.2-1.6 0-3.3.8-4.7.3-.6.8-1.1 1.3-1.6 0 .4 0 .8-.1 1.2.1 1.7.3 3.4.5 5.1z" fill="#0c0902" stroke-width="none" opacity="1" stroke="none"></path></g></g><g id="svga-group-humanbody-back"><path id="SvgjsPath26886" d="M77.8 105.9s4.8 37.7 10 55.8c0 0-6.4 8.8-14.5 11.9-28.7 11.2-35 11.2-39.6 15.2-2.4 2.1.2 11.1 1.8 17.2 1.3 5 1.7 13.2 1.7 13.2h132.2s1.6-33-.6-39.8-7.1-2.9-21.9-4.5c-14.8-1.6-28.7-10.3-31-13.2l.3-60-38.4 4.2z" fill="#9c6334" stroke-width="none" opacity="1" stroke="none"></path></g><g id="svga-group-chinshadow-single"><path id="SvgjsPath26882" d="M85.5 153.6c10 1 23.1.5 30.1-1.4l.3-50.5-38.4 4.2c0-.1 3.6 28.4 8 47.7z" fill="#7d4211" stroke-width="none" opacity="1" stroke="none"></path></g><g id="svga-group-humanbody-front"><path id="SvgjsPath26887" d="M72.1 183.1s14.6-.2 20.4 2.6c5.8 2.9 12.7 2.4 16.1-1s21.6-7 21.6-7-19.7 1.9-25 4.6c-5.3 2.7-22.3-2.8-33.1.8z" fill="#7d4211" stroke-width="none" opacity="1" stroke="none"></path><path id="SvgjsPath26888" d="M74.2 173.2c6.7-1.3 14.7-6.4 14.7-6.4l6.2 5.5c-4.3-7.9-12.7-41.1-12.7-41.1l-.7.7c1.7 10.5 3.9 21.9 6.1 29.7 0 0-6 8.2-13.6 11.6z" fill="#7d4211" stroke-width="none" opacity="1" stroke="none"></path><path id="SvgjsPath26889" d="M170.7 188.5c-.1-2.1-.2-4.1-.4-6.2-.1-1-.3-2.1-.6-3.2-.2-.5-.4-1-.6-1.6-.2-.5-.6-1-1-1.5s-.9-.9-1.5-1.1c-.6-.3-1.1-.4-1.7-.6-1.1-.2-2.2-.2-3.2-.2-2.1 0-4.1.1-6.1.1s-4-.1-6-.2-4-.4-6-.7c-1-.2-2-.4-2.9-.6l-1.5-.4c-.5-.1-1-.3-1.4-.4-3.8-1.1-7.6-2.6-11.2-4.4l-1.3-.7-1.3-.7c-.4-.2-.9-.5-1.3-.8s-.9-.5-1.3-.8-.8-.5-1.3-.8l-1.2-.9-.6-.5-.3-.2-.3-.2c-.2-.2-.4-.3-.5-.5l-.2-.3v-44.6l-.1-15v-.6l-.6.1c-6.4.8-12.9 1.5-19.3 2.3l-19.1 2.3v.5l.1.4.1.9.2 1.8c.1 1.2.3 2.3.4 3.5l.9 7c.6 4.7 1.3 9.4 2.1 14 .8 4.7 1.5 9.3 2.5 14 .9 4.5 1.8 9 3 13.5-1.1 1.4-2.3 2.7-3.6 4-1.3 1.3-2.8 2.6-4.3 3.8-1.5 1.1-3.1 2.2-4.8 3l-1.3.6c-.4.2-.9.3-1.3.5l-2.7 1c-7.2 2.7-14.5 5.3-21.8 7.7l-5.5 1.8c-1.8.6-3.7 1.3-5.5 2.2-.4.2-.9.5-1.3.7-.4.3-.9.5-1.3.9l-.6.5c-.2.2-.5.5-.6.8-.3.5-.4 1.1-.5 1.6-.2 1.1-.1 2.1 0 3.1s.3 2 .4 2.9c.4 1.9.8 3.8 1.3 5.7l.8 2.8c.3.9.5 1.8.7 2.8.4 1.9.7 3.8.9 5.7s.4 3.8.5 5.7v.8h133.4v-.8c.2-4.1.4-8.2.5-12.3s.2-8.2.2-12.3c0-1.8-.1-3.8-.1-5.9zm-67.4 30.3H70.2l-16.5-.1-16-.1c-.1-1.8-.2-3.5-.4-5.3-.2-1.9-.4-3.9-.8-5.8-.2-1-.4-1.9-.7-2.9l-.7-2.8c-.5-1.9-.9-3.7-1.2-5.6-.2-.9-.3-1.9-.4-2.8-.1-.9-.1-1.9 0-2.7.1-.4.2-.8.4-1.1.1-.2.2-.3.3-.4l.5-.4c.3-.3.7-.5 1.1-.8.4-.2.8-.5 1.2-.7 1.7-.8 3.5-1.4 5.3-2l5.5-1.8c7.3-2.4 14.6-5 21.8-7.8l2.7-1c.5-.2.9-.3 1.4-.5l1.4-.6c1.8-.9 3.4-2 5-3.2s3-2.5 4.4-3.9 2.7-2.9 3.8-4.5l.2-.3-.1-.3c-1.3-4.5-2.3-9.1-3.3-13.7s-1.9-9.3-2.7-13.9c-.8-4.6-1.6-9.3-2.4-14l-2.2-13.9 19.3-1.8c6.2-.6 12.3-1.2 18.5-1.8l-.2 14.4-.2 15-.3 30v.4l.2.2.6.7.6.6.3.3.3.2.6.5c.4.3.9.6 1.3.9.4.3.9.6 1.3.9.4.3.9.5 1.3.8s.9.5 1.3.8l1.4.8 1.4.7c.5.2.9.5 1.4.7l1.4.7c1 .4 1.9.8 2.9 1.2s1.9.8 2.9 1.1l1.5.5c.5.2 1 .3 1.5.4.5.1 1 .3 1.5.4l1.5.4c1 .3 2 .4 3 .6 2 .4 4.1.6 6.2.8 2.1.2 4.1.2 6.2.2 2.1 0 4.1-.1 6.1-.1s4 .1 5 1.3c.5.6.9 1.4 1.2 2.3.3.9.4 1.9.6 2.8.3 2 .4 4 .5 6s.1 4.1.2 6.1c.1 7.9-.1 15.8-.4 23.7-10.8.1-21.5.1-32.3.2h-33.1z" fill="#6e3404" stroke-width="none" opacity="1" stroke="none"></path><path id="SvgjsPath26890" d="M150.7 219.2 147 198l-.4 21.2z" fill="#7d4211" stroke-width="none" opacity="1" stroke="none"></path><path id="SvgjsPath26891" d="M47.3 203.5s2.2 11.5 2.9 15.7h3.5l-6.4-15.7z" fill="#7d4211" stroke-width="none" opacity="1" stroke="none"></path></g><g id="svga-group-clothes-single"><path id="SvgjsPath27041" d="M83.3 143.2c-.5.1-14.9 3.7-17.3 4.9-2.5 1.2-1.2 6.9-2.2 7.8-.9.9-12 12.7-11.3 14s6.1 4 5.8 5.5c-.3 1.5-.9 2-.9 2s-22.5 5.4-24.7 7.5c-2.1 2.1-3.5 6.9-2.1 9.8 0 0-.8 4.8.1 10s1.8 9.4 1.8 9.4l.2 5.8h140.9s-.6-15-.4-17.9 1.8-13.7.7-16.2-1.6-5.1-1.6-5.1-1.6-7.5-5.5-8.9c-4-1.3-20.1.7-23 0s-.2-.9-.2-.9 2.2-1.6 2-3.1-4.9-4.4-6-7.3 0-6.4-2.4-7.5-5.1-3.1-8-6c-2.9-2.9-12.2-4-12.2-4s0 12.2-.2 14.2.2 8-.2 11.1c-.4 3.1-14.6 15.7-15.7 16.8S88 173.6 86 170.9c-2-2.7 1.3-6 1.3-9.1S84 148.8 84 147s-.7-3.8-.7-3.8z" fill="#e7b5dd" stroke-width="none" opacity="1"></path><path id="SvgjsPath27042" d="M57.6 175.2zm116.6 25.7c.4-3.1.8-6.3.9-9.5.1-1.6.2-3.2-.1-5 0-.4-.3-1.1-.4-1.3-.1-.3-.3-.7-.4-1.1-.2-.7-.5-1.4-.6-2.2-.1-.4-.2-.7-.2-1.1l-.3-1.2c-.2-.8-.5-1.6-.8-2.4-.6-1.5-1.3-3.1-2.5-4.4-.6-.7-1.3-1.3-2.2-1.7-.4-.2-.9-.3-1.3-.4-.4-.1-.8-.1-1.3-.2-1.6-.1-3.3-.1-4.9-.1-3.2.1-6.4.2-9.5.4-1.6.1-3.2.1-4.7.1h-.6a5 5 0 0 0 1.1-1.6c.2-.6.4-1.4.1-2.2-.3-.7-.7-1-1-1.4-1.4-1.4-2.8-2.6-3.9-3.9-.3-.3-.5-.7-.7-1-.2-.3-.3-.7-.4-1.1-.2-.8-.3-1.6-.4-2.6-.1-.9-.1-1.9-.5-3-.2-.5-.6-1.1-1.1-1.6-.2-.2-.5-.4-.8-.5l-.6-.3c-1.6-.8-3-1.9-4.4-3-.7-.6-1.4-1.2-2-1.8-.6-.6-1.5-1.4-2.4-1.9-1.8-1-3.6-1.5-5.5-2-1.8-.5-3.7-.8-5.6-1.1l-1.1-.1v1.1c0 4.1 0 8.1-.1 12.2 0 .5 0 1-.1 1.5l-.1.8V161.2c0 2 .1 4.1-.1 6 0 .2-.1.5-.1.7l-.1.2-.1.3c-.2.4-.4.8-.7 1.2-.6.8-1.2 1.6-1.9 2.3-1.3 1.5-2.7 3-4.2 4.4s-2.9 2.9-4.4 4.2l-2.2 2.1-1.1 1.1-.6.5c-.3-.1-.7-.4-1.1-.7l-1.2-.9c-.8-.6-1.5-1.3-2.2-2-1.5-1.4-2.9-2.8-4.3-4.3s-2.8-2.9-4.1-4.5c-.7-.8-1.4-1.5-1.6-2.3-.2-.8-.1-1.8.3-2.7.3-.9.7-1.9 1.1-2.9.3-1 .5-2.1.3-3.2-.3-2.1-.9-4-1.4-6-.5-1.7-.9-3.3-1.4-5-.1-.3-.2-.6-.2-.9l-.3-1.5c-.1-.5-.1-1-.2-1.5l-.3-1.5-.2-.7-.1-.4-.1-.2v-.2s0-.1-.1-.1c-.4.1-.6.1-.9.2l-.8.2-1.7.4-3.3.8c-2.2.6-4.4 1.1-6.7 1.7-1.1.3-2.2.6-3.3 1-.3.1-.6.2-.8.3-.3.2-.6.4-.8.6-.4.5-.7 1.1-.8 1.7-.3 1.2-.3 2.4-.4 3.5 0 .6-.1 1.1-.2 1.6 0 .1-.1.2-.1.3v.1s-.1.1-.2.1l-.6.6c-3.2 3.3-6.3 6.7-9.2 10.3-.4.5-.7.9-1 1.4-.2.2-.3.5-.5.8-.1.1-.2.3-.2.5v.5c0 .1.1.3.1.3l.1.1c.5.7 1 .9 1.4 1.3l1.4 1c.9.7 1.9 1.4 2.5 2.1.2.2.2.4.3.4v.1c0 .1-.1.2-.1.4-.1.2-.2.5-.3.7 0 .1-.1.2-.2.3v.1c-5.8 1.4-11.7 2.9-17.5 4.6-1.5.4-2.9.9-4.4 1.4l-1.1.4-1.1.5c-.4.2-.9.5-1.1.9-.3.3-.5.6-.8 1-.9 1.4-1.5 2.9-1.8 4.5-.2 1.5-.3 3.2.4 4.7-.2 1.6-.3 3.2-.3 4.8 0 1.7.2 3.3.4 5l1.9 9.5.2 5.7v.8h.8l35.2-.3c11.7-.1 23.5-.2 35.2-.2 11.7 0 23.5 0 35.2.1l35.2.3h.7v-.7l-.2-9.5-.1-4.7v-2.4c.4-.1.4-.8.5-1.6zm-68.7-19.1c1.5-1.4 3-2.8 4.4-4.2 1.5-1.4 2.9-2.9 4.3-4.4.7-.8 1.4-1.6 2-2.4.3-.4.6-.9.9-1.4l.2-.4c0-.1.1-.2.1-.3.3-.3.6-.5.9-.8.8-.7 1.7-1.3 2.6-2 1.7-1.4 3.4-3.2 4.3-5.5.4-1.1.6-2.5.3-3.7-.3-1.2-.8-2.3-1.6-3.2-1.4-1.8-3.3-3.2-5.3-4.1 1.6 1.6 3 3.2 4 5 .5.9.9 1.8 1 2.7.1.9 0 1.8-.3 2.7-.7 1.8-2 3.4-3.5 5-.7.8-1.5 1.6-2.2 2.5l-.1.1c.2-2 .1-3.9.1-5.9v-3.7l.1-.8c0-.5.1-1.1.1-1.6.1-3.7.2-7.4.2-11.1 1.4.2 2.8.5 4.2.8 1.8.4 3.5 1 5 1.8.8.4 1.2.9 1.9 1.6.7.7 1.4 1.3 2.1 1.9.2.2.5.4.7.6.4 1.1.8 2.2 1.1 3.3.4 1.6.7 3.2.6 4.7 0 .4-.1.7-.2 1.1-.1.3-.3.5-.6.9-.5.6-1.1 1.2-1.6 1.9-1.1 1.2-2.1 2.5-3.1 3.9 1.3-1.1 2.5-2.2 3.6-3.3.6-.6 1.2-1.2 1.7-1.8.3-.2.6-.7.8-1.1.2-.4.2-.9.3-1.3.1-1.8-.3-3.4-.9-5-.3-.9-.7-1.8-1.2-2.6 1.1.8 2.2 1.6 3.5 2.2.2.1.4.2.7.3.1.1.3.1.4.2.2.2.4.4.5.7.2.6.3 1.5.4 2.5.1.9.2 1.9.5 2.9.1.5.4 1 .6 1.5 0 .1.1.1.1.1v.3c0 1.2-.2 2.4-.7 3.4-.5 1-1.3 1.9-2.2 2.5-1.9 1.4-4.1 2.6-6.3 3.8l-6.5 3.6c-4.3 2.4-8.7 4.8-12.9 7.5-1.1.7-2.1 1.4-3.1 2.1l-1.5 1.2-.4.4c-.1.1-.2.3-.3.4l-.5.8c-1.2 1.9-2.3 3.9-3.4 5.8-1.4-1.1-2.8-2.2-4.3-3.1.4-.4.8-.8 1.1-1.2.7-.7 1.3-1.4 1.9-2.1.5-.6 1.1-1.3 1.6-2l.4-.3 1.1-1 2.4-2.4zm-2.4 14.5c0 .1 0 .1 0 0zm-2.7-11.7zm-36.2-28.4c.1-.1.1-.2.2-.3.1-.2.1-.4.2-.5.1-.6.1-1.2.2-1.8 0-1.1.1-2.3.3-3.3.1-.5.3-1 .6-1.4.1-.2.3-.3.5-.5.2-.1.5-.2.8-.3 1.1-.4 2.1-.8 3.2-1.1 2.2-.7 4.4-1.3 6.6-1.9l3.3-.9 1.7-.5.8-.2c.2-.1.6-.1.7-.2v.1l.1.2.1.4.2.7c.1.5.2 1 .2 1.5.1.5 0 1 .1 1.5l.3 1.5c.1.3.2.6.2.9-1.8.7-3.6 1.4-5.2 2.3-.9.5-1.8 1.1-2.5 1.9-.7.8-1.4 1.7-1.7 2.7-.3 1-.3 2.2-.1 3.2.1 1 .3 2.1.6 3.1.5 2 1.1 4 1.8 5.9l1.1 2.9c.2.5.3.9.5 1.4.2.6.6 1.1 1 1.4 1.6 1.4 3.4 2.4 5.2 3.4 1.8 1 3.7 1.9 5.5 2.7 1.8.9 3.8 1.6 5.5 2.6-3.4-2.2-7.2-3.9-10.7-6-1.7-1.1-3.5-2.1-5-3.4-.3-.3-.6-.7-.7-1.1-.2-.5-.3-1-.5-1.5l-1.1-2.9c-.7-1.9-1.4-3.8-1.8-5.8l-.6-3c-.2-1-.2-1.9 0-2.9.4-1.9 2-3.3 3.7-4.4 1.6-1 3.3-1.8 5-2.7.4 1.6.8 3.3 1.2 4.9.5 2 1 4 1.2 5.9.3 1.9-.8 3.7-1.5 5.7-.2.6-.4 1.2-.4 1.9l-.6-1.2c-.6-1.1-1.1-2.3-1.5-3.4-.4-1.1-.6-2.2-.6-3.4 0-1.2.1-2.5.2-3.8-.9 1-1.5 2.3-1.8 3.7-.3 1.4-.2 2.9.3 4.3.5 1.3 1.3 2.5 2.1 3.5.6.8 1.3 1.5 2.1 2.1.2.5.4.9.7 1.2.3.4.7.8 1 1.2 1.3 1.6 2.7 3.1 4.1 4.6 1.4 1.5 2.8 3 4.3 4.4.7.7 1.5 1.4 2.3 2.1.4.3.8.7 1.2 1 .4.3.8.6 1.5.9-.2.3-.5.6-.8.9-.6.7-1.2 1.5-1.7 2.3-.3.5-.6.9-.9 1.4l-1.5-.9c-1.1-.6-2.2-1.2-3.5-1.6-1.2-.4-2.3-.7-3.5-1.1-2.3-.7-4.7-1.4-7-2.2-2.3-.8-4.6-1.6-6.6-2.8-.5-.3-1-.6-1.3-.9-.2-.1-.3-.3-.4-.4v-.2l-.1-.5c-.4-1.3-.8-2.4-1.3-3.6-1-2.3-2-4.5-3.1-6.7-.6-1.1-1.1-2.2-1.8-3.3-.3-.6-.6-1-.8-1.6-.2-.5-.4-1.1-.5-1.7-.5-2.2-.7-4.5-1.3-6.7-.1.4 0 .4 0 .3zm-8.6 15.3-1.4-1c-.4-.3-.9-.7-1.1-.9 0-.1 0-.1.1-.2.1-.2.2-.4.4-.7.3-.5.6-.9 1-1.4 2.7-3.6 5.8-7 8.9-10.4l.3-.4c.2 2.2.2 4.4.6 6.6.1.6.2 1.2.4 1.9.2.6.5 1.3.7 1.8l1.5 3.3c1 2.2 1.9 4.5 2.8 6.8.4 1.1.8 2.3 1.1 3.4l.1.4.1.3c0 .1.1.3.2.4.2.4.5.8.8 1 .6.5 1.1.9 1.7 1.2 2.3 1.3 4.6 2.1 7 2.9 2.4.8 4.7 1.4 7.1 2.1l3.6.9c1.1.3 2.2.8 3.2 1.3 2 1 3.9 2.2 5.8 3.5-.2-.1-.5-.1-.7-.2-2.4-.6-4.8-1.1-7.2-1.5-4.8-.8-9.7-1.5-14.6-2.1-2.4-.3-4.9-.5-7.3-.8-.3 0-.6-.1-.8-.1H69.6c-.1 0-.1-.1-.2-.1-.3-.3-.7-.8-1-1.2-.6-1-1.2-2.1-1.7-3.1-.5-1.1-1.1-2.2-1.7-3.3-.7-1.2-1.5-2.1-2.3-3-1.1-1.3-2.3-2.5-3.6-3.7v-.3c-.2-.5-.4-.8-.6-1-1-1.1-1.9-1.7-2.9-2.4zm47.6 48c-11.7-.1-23.5-.1-35.2-.2l-34.5-.3-.1-5v-.2l-1.8-9.6c-.2-1.6-.4-3.1-.4-4.7s.1-3.2.3-4.7v-.3l-.1-.2c-.5-1.1-.6-2.6-.3-3.9.2-1.4.7-2.7 1.5-3.9.2-.3.4-.6.6-.8l.3-.3c.1-.1.2-.1.3-.2l1-.5 1-.4c1.4-.5 2.8-1 4.3-1.4 5.8-1.8 11.7-3.3 17.5-4.8h.2l.1-.1c.3-.2.3-.3.5-.5.1-.1.2-.3.3-.5.2-.3.3-.6.3-.9v-.2c1 1.2 1.9 2.4 2.8 3.6.3.5.7 1 1 1.5l.5.8c.1.2.3.5.4.8l1.5 3.3c.5 1.1 1 2.3 1.7 3.4.3.6.7 1.1 1.3 1.7.2.1.3.3.5.4.1.1.2.1.4.1l.3.1c.4.1.7.1 1 .2 2.5.4 4.9.5 7.4.7 4.9.3 9.8.4 14.6 1 2.4.3 4.8.8 7.2 1.4 1.2.4 2.3.8 3.3 1.4.1.1.2.1.4.2h.1l.2.1c.6.3.6-.9.5-.7 0-.1-.1-.1-.1-.1l-.1-.1-.2-.2-.7-.6c-.4-.4-.9-.8-1.3-1.1 1.4-1.8 2.8-3.5 4.1-5.3l.6-.8.2-.3.3-.3c.5-.4 1-.7 1.5-1 1-.6 2.1-1.3 3.2-1.9l13.1-7.1c2.2-1.2 4.3-2.4 6.5-3.7 2.1-1.3 4.3-2.6 6.3-4.2 1-.8 1.9-1.9 2.4-3.2.4-.9.5-1.9.5-2.8 1.2 1.4 2.6 2.6 3.7 3.8.3.3.6.6.6.8 0 0 0 .3-.1.5-.2.4-.6.9-1.1 1.3-.2.1-.4.1-.6.2-.1 0-.2.1-.4.1-.1 0-.1 0-.2.1-.1 0-.2.1-.3.1-1.2.4-2.1 1-3 1.6-3.7 2.4-7 5.2-10.5 7.6-.9.6-1.7 1.2-2.6 1.7-.4.2-.9.5-1.3.6-.5.2-1.1.3-1.6.5-2.1.8-4.1 1.6-6 2.6-2 1-3.9 2-5.7 3.2-.9.6-1.8 1.2-2.7 1.9-.8.7-1.7 1.5-2.1 2.5.6-.9 1.6-1.5 2.5-2 .9-.6 1.9-1.1 2.8-1.5 1.9-1 3.9-1.8 5.9-2.7 2-.8 4-1.6 6-2.3l1.5-.5c.6-.2 1.2-.5 1.7-.7 1-.6 1.9-1.2 2.8-1.8 3.6-2.6 6.8-5.4 10.2-7.9.6-.4 1.2-.9 1.9-1.2.1.1.1.2.2.3.1.1.2.1.2.1l.1.1c.2.1.3.1.4.2.2.1.5.1.7.2.4.1.9.2 1.4.2h1.2c1.6 0 3.2-.1 4.8-.2 3.2-.2 6.3-.4 9.5-.5 1.6 0 3.1 0 4.6.1 1.6.1 2.6.5 3.6 1.6.9 1 1.6 2.4 2.2 3.8.3.7.5 1.4.7 2.2.1.4.2.7.3 1.1l.3 1.2c.2.8.4 1.6.7 2.4.1.4.3.8.5 1.2.1.2.2.4.2.5 0 .1.1.2.1.4.2 1.4.2 3 .1 4.5-.1 3.1-.5 6.3-.8 9.4-.1.8-.1 1.6-.1 2.4v2.4l.1 4.8.4 8.8-19.9.1c.2-1.6.5-3.1.8-4.7.3-1.7.6-3.4.8-5.1.3-1.7.5-3.4.7-5.1.1-.9.2-1.7.3-2.6l.1-1.3c0-.4.1-.9.1-1.2.2-1.4 1.1-2.9 2-4.2.9-1.4 2-2.7 3.1-4 2.2-2.6 4.6-5.1 7-7.6-2.9 1.9-5.6 4.1-8.1 6.6-1.2 1.2-2.4 2.6-3.5 4-1 1.5-2.1 3-2.4 5.1l-.8 10.4c-.1 1.7-.2 3.5-.3 5.2 0 1.6-.1 3.2.1 4.8l-14.5.1c-12 .1-23.8.1-35.5.1zM47 202.6c-.3-.6-.7-1.4-1.2-2-.2-.3-.5-.6-.8-.9l-.8-.8c-1.1-.9-2.3-1.8-3.6-2.4-1.2-.7-2.6-1.2-3.9-1.7-1.3-.5-2.7-.9-4.1-1 2.5 1.2 4.9 2.6 7.2 4.1 1.1.8 2.2 1.6 3.1 2.5.2.2.5.4.7.7.2.2.4.5.6.7.2.2.3.5.5.8.2.2.3.6.4.9 1.1 2.5 1.9 5.1 2.9 7.7 1 2.6 1.9 5.2 3 7.8-.3-2.8-.9-5.5-1.5-8.2-.6-2.9-1.4-5.6-2.5-8.2z" fill="#c875b8" stroke-width="none" opacity="1"></path><path id="SvgjsPath27043" d="M110.3 203.4c0-.6-.1-1.3-.3-1.9-.3-1.2-.8-2.4-1.4-3.4-.6-1.1-1.3-2.1-2-3-.8-.9-1.6-1.8-2.5-2.6-.5-.4-.9-.8-1.5-1.1l-.6-.3c.1-.4-.1-.9-.5-1.1-.5-.3-1.1-.1-1.3.4 0 .1-.1.1-.1.2H99c-.7.1-1.3.2-2 .4-1.3.3-2.6.8-3.7 1.5-1.2.7-2.3 1.5-3.2 2.7-.9 1.1-1.4 2.7-1.4 4.1 0 2.3-.9 4.8-2.1 7.1l-.9 1.7c-.3.6-.6 1.2-.7 1.9-.1.4-.1.8.1 1.2.2.4.5.7.8.9.7.3 1.2.5 1.8.8.6.3 1.2.5 1.9.7.7.2 1.4.4 2.2.3.4-.1.9-.2 1.3-.6.4-.3.6-.8.8-1.2.3-.8.3-1.6.3-2.3-.1-2.7-.6-5.2-.8-7.7-.2-1.2-.2-2.4 0-3.5.1-.5.3-1 .6-1.5s.7-.9 1.1-1.4c.8-.9 1.8-1.7 2.8-2.5.5-.4.9-.7 1.4-1.1-.8 1.6-1.5 3.1-2.1 4.8-.4 1.1-.8 2.3-1.1 3.5-.1.6-.2 1.2-.3 1.9-.1.6 0 1.3 0 1.9.1 2.3 0 4.6-.5 6.9-.4 2.3-1.2 4.5-2.3 6.6 1.5-1.9 2.5-4.1 3.2-6.4.7-2.3 1.1-4.7 1.1-7.2 0-.6 0-1.1.1-1.7.1-.5.2-1.1.3-1.6.3-1.1.7-2.2 1.1-3.2.1-.2.2-.4.2-.6v.7c0 2.4.4 4.8.8 7 .4 2.3.9 4.5 1 6.8 0 1.1-.3 2.2-.4 3.3l-.7 3.4 1.2-3.3c.3-1.1.8-2.2.9-3.4.2-2.4-.2-4.7-.4-7s-.6-4.6-.4-6.8c.1-1.8.3-3.6.7-5.4l.9 1.5c.3.5.5 1 .6 1.5.1.5.1 1.1.1 1.6.1 2.3 0 4.6 0 7 0 2.3 0 4.6-.1 7 0 .6 0 1.2.1 1.9.1.6.1 1.3.5 2.1.2.4.8.8 1.2.9.5.1.8 0 1.1-.1.6-.1 1.1-.2 1.6-.2.3 0 .8 0 1.2-.2s.6-.6.7-.9c.2-.7.2-1.3.2-1.9v-3.6c0-1.2.1-2.3.3-3.5.1-.6.2-1.3.2-2zm-11.2-11.9-1.8.9c-1.2.6-2.3 1.3-3.3 2.2-.5.4-1 .9-1.5 1.5s-.8 1.3-1 2c-.4 1.4-.4 2.8-.3 4.2.2 2.7.8 5.2 1.1 7.7.1.6.1 1.1-.1 1.6-.1.4-.3.6-.7.7-.4.1-1 .1-1.6 0-.6-.1-1.2-.3-1.8-.4-.6-.2-1.3-.4-1.8-.6-.5-.2-.7-.6-.7-1.2.2-1.2.9-2.3 1.5-3.4 1.3-2.2 2.9-4.5 3.2-7.3.1-.6.2-1.1.3-1.6.2-.5.5-1 .8-1.5.7-.9 1.6-1.7 2.6-2.4s2.1-1.3 3.3-1.8c.6-.2 1.2-.5 1.8-.7.2-.1.5-.1.7-.2 0 .1-.1.1-.1.1l-.6.2zm10.1 20.8c-.1.6-.2 1.1-.4 1.6-.1.2-.2.4-.4.4-.1.1-.2 0-.5 0-.7-.1-1.3-.1-1.9 0h-.7c-.1-.1-.1 0-.1-.2-.1-.3-.2-.8-.2-1.4 0-.5 0-1.1.1-1.7.2-2.3.4-4.7.3-7.1-.1-2.4-.2-4.7-.6-7.1-.1-.6-.2-1.2-.4-1.8-.1-.3-.2-.5-.3-.7.4.6.8 1.1 1.2 1.8 1.2 1.9 2.3 3.9 3.1 6 .4 1.1.7 2 .6 3.2 0 1.2.1 2.4.2 3.6 0 1.1.1 2.3 0 3.4z" fill="#b95aa6" stroke-width="none" opacity="1"></path><path id="SvgjsPath27044" d="M131.3 152.1c-1.2-3.3-3-2.5-4.6-4.1s-2.9-1.1-5.3-1.9c0 0 2.9 2.1 3.8 2.5s2.8 6.9 2.5 9.5c-.3 2.6-5.6 8.1-7.3 10.6-1.7 2.5-9.1 9.4-12.4 11.8-3.3 2.4-7 8.3-7 8.3s10.8-9.9 13.9-11.2c3-1.3 12.2-10.2 12.6-12.3.4-2.1 4-4.5 5.3-6.3s-.3-3.6-1.5-6.9zm34.9 29.5c1.1 1.7 3-.5 2.2-.9s-1.1-5.8-2.6-6.7-17.8.7-21.8.7-5.6 3.3-11.2 6.2c0 0 5.8-1.3 10-3s10.8-.9 15.3-.7c4.5.2 7 2.7 8.1 4.4zm4.5 19c.4-5.8.8-14.1.8-14.1s-1.4-.4-3.4.4-3.8 2.9-7.7 7.8c0 0 5-2.2 6.9-1.6 1.9.7 1.1 11 1.2 15.7.1 4.8 1.9 8.3 2.6 9.1.8.8-.8-11.5-.4-17.3zm-94.9-23.9c-1.1-1.3-7.1-16.1-7.5-19s.4-8.2.1-8.3c-3.8-1.9-4.6 7.8-.9 13.9 3.7 6.1 5.3 15.1 6.7 16.4 1.4 1.3 21.8 8.6 19.8 7.4-2-1.3-17.2-9.1-18.2-10.4zm-4.6 8.9c-.9-1.4-6.6-11.1-9-12.7-2.4-1.6-5.7-3.4-5.7-3.4 2.4 1.1 9.1 9.9 11.1 13.2s1.2 5.1 2.9 5.4c1.7.3 11.8 2.1 11.8 2.1s-10.2-3.2-11.1-4.6z" fill="#f6daf1" stroke-width="none" opacity="1"></path></g><g id="svga-group-head" transform="matrix(0.9986295346632303,0.05233595798588117,-0.05233595798588117,0.9986295346632303,7.202400861770926,-5.048582978124216)"><g id="svga-group-ears-left-move" transform="matrix(1,0,0,1,0,0)"><g id="svga-group-ears-left"><path id="SvgjsPath26833" d="M62.22 91.07s-9.85-8.65-11.43-8.8c-1.36-.13-4.73 7.07-6.22 11.62-.39 1.2-.3 2.54.22 3.7 1.43 3.16 4.6 9.75 7.44 13.05 0 0 2.4.52 3.16.29s6.69-5 7.3-6.86.74-9.97-.47-13z" fill="#9c6334" stroke-width="none" opacity="1" stroke="none"></path><path id="SvgjsPath26834" d="M63.07 94.44c.16 1.16.25 2.33.29 3.5.05 1.17.05 2.34-.01 3.51-.03.59-.08 1.17-.15 1.76-.05.3-.09.59-.17.9-.09.31-.25.62-.41.85-.64.98-1.41 1.72-2.18 2.48-.78.74-1.58 1.44-2.39 2.12-.41.33-.82.67-1.25.98-.21.16-.43.31-.65.46l-.35.22c-.14.07-.31.15-.47.17-.59.07-1.09-.01-1.61-.08-.51-.07-1.02-.17-1.53-.28l-.12-.03-.07-.09c-1.28-1.53-2.32-3.25-3.3-4.99-.97-1.75-1.85-3.56-2.7-5.38l-1.25-2.75c-.44-.92-.63-2.02-.48-3.05.06-.52.23-1.01.39-1.48s.33-.94.5-1.41c.35-.93.7-1.86 1.07-2.78.76-1.83 1.55-3.65 2.59-5.32.26-.42.54-.82.88-1.2.17-.19.35-.37.6-.52.12-.07.27-.14.46-.14.17.01.28.06.42.1.94.41 1.65 1 2.43 1.56 1.52 1.14 2.98 2.35 4.41 3.61 1.44 1.25 2.85 2.53 4.24 3.87.43 1.1.64 2.26.81 3.41zm-9.79-10.31c-.75-.52-1.54-1.11-2.29-1.42-.08-.02-.18-.07-.23-.07-.03 0-.1.01-.18.06-.15.08-.31.22-.45.39-.3.32-.57.7-.83 1.09-1.02 1.59-1.92 3.33-2.74 5.1-.41.89-.81 1.78-1.16 2.71-.18.46-.35.92-.52 1.39-.17.47-.34.92-.4 1.41-.13.98.06 2 .49 2.88.42.91.86 1.81 1.32 2.7.9 1.78 1.87 3.52 2.88 5.22 1.02 1.69 2.09 3.35 3.32 4.79l-.19-.11c.97.18 2.03.38 2.91.29.1-.01.16-.06.25-.1l.31-.2.62-.45c.41-.3.82-.63 1.23-.95.81-.66 1.6-1.34 2.37-2.06.75-.72 1.52-1.47 2.11-2.3.15-.22.25-.4.33-.63.07-.24.12-.51.17-.78.08-.55.15-1.12.19-1.69.08-1.14.12-2.29.13-3.45.01-1.15-.04-2.31-.13-3.46-.09-1.14-.23-2.32-.59-3.39-2.96-2.34-5.91-4.75-8.92-6.97z" fill="#8d5221" stroke-width="none" opacity="1" stroke="none"></path><path id="SvgjsPath26835" d="M62.45 98.39S52.96 86.4 51.18 87.4s-4.58 6.65-4.57 8.53c.02 2.77 2.95 7.4 4.42 8.8s3.25 2.25 5.6 1.71 5.82-8.05 5.82-8.05z" fill="#8d5221" stroke-width="none" opacity="1" stroke="none"></path><path id="SvgjsPath26836" d="M56.36 101.74c-.34-1.14-.73-2.26-1.13-3.37a93.8 93.8 0 0 0-1.28-3.3c-.45-1.09-.93-2.16-1.46-3.21-.54-1.04-1.08-2.08-1.74-3.05l-.07-.11-.07.11c-.66 1.04-1.28 2.1-1.88 3.2-.3.55-.58 1.1-.85 1.67-.28.56-.51 1.16-.74 1.75l-.04.09.04.11c.41 1.24.84 2.46 1.29 3.69.22.61.48 1.21.73 1.81.26.6.52 1.19.87 1.78l.17.27.22-.2c.3-.28.53-.58.77-.9.23-.32.43-.67.61-1.03.35-.73.56-1.57.53-2.42v-.05l-.02-.04c-.44-.87-.91-1.73-1.36-2.6l-.05.03c.37.91.74 1.83 1.13 2.73l-.02-.09c-.03.77-.26 1.51-.61 2.16-.35.65-.82 1.24-1.32 1.7l.39.07c-.3-.51-.56-1.11-.81-1.69l-.72-1.79c-.48-1.2-.93-2.41-1.38-3.62v.2c.4-1.18.85-2.35 1.38-3.47.52-1.13 1.12-2.22 1.8-3.22h-.14c.63.95 1.08 2.04 1.55 3.11l1.36 3.24 1.38 3.24c.46 1.08.92 2.16 1.41 3.23l.06-.03z" fill="#6e3404" stroke-width="none" opacity="1" stroke="none"></path></g></g><g id="svga-group-ears-right-move" transform="matrix(1,0,0,1,0,0)"><g id="svga-group-ears-right"><path id="SvgjsPath26837" d="M137.78 91.07s9.85-8.65 11.43-8.8c1.36-.13 4.73 7.07 6.22 11.62.39 1.2.3 2.54-.22 3.7-1.43 3.16-4.6 9.75-7.44 13.05 0 0-2.4.52-3.16.29s-6.69-5-7.3-6.86c-.61-1.86-.74-9.97.47-13z" fill="#9c6334" stroke-width="none" opacity="1" stroke="none"></path><path id="SvgjsPath26838" d="M137.75 91.04c1.4-1.34 2.8-2.62 4.24-3.87 1.43-1.26 2.9-2.47 4.41-3.61.78-.55 1.49-1.14 2.43-1.56.14-.04.25-.1.42-.1.19 0 .34.07.46.14.24.15.43.33.6.52.34.38.61.78.88 1.2 1.04 1.67 1.83 3.49 2.59 5.32.38.92.72 1.85 1.07 2.78.17.47.34.94.5 1.41.16.47.33.96.39 1.48.15 1.03-.04 2.13-.48 3.05l-1.25 2.75c-.85 1.82-1.73 3.63-2.7 5.38-.98 1.75-2.02 3.46-3.3 4.99l-.07.09-.11.02c-.51.11-1.02.2-1.53.28-.52.07-1.02.14-1.61.08-.16-.02-.32-.09-.47-.17l-.35-.22c-.22-.15-.44-.3-.65-.46-.43-.32-.84-.65-1.25-.98-.82-.67-1.62-1.38-2.39-2.12-.77-.76-1.54-1.49-2.18-2.48a3.05 3.05 0 0 1-.41-.85c-.09-.31-.13-.61-.17-.9-.07-.59-.12-1.18-.15-1.76-.06-1.17-.06-2.34-.01-3.51.05-1.17.13-2.34.29-3.5.15-1.15.36-2.31.8-3.4zm.06.05c-.35 1.07-.49 2.24-.59 3.39-.09 1.15-.14 2.31-.13 3.46.01 1.15.05 2.3.13 3.45.04.57.11 1.14.19 1.69.05.27.1.54.17.78.08.23.18.42.33.63.59.83 1.36 1.58 2.11 2.3.76.72 1.56 1.41 2.37 2.06.41.33.81.65 1.23.95l.62.45.31.2c.09.04.15.09.25.1.88.09 1.94-.11 2.91-.29l-.19.11c1.23-1.44 2.3-3.1 3.32-4.79a93.9 93.9 0 0 0 2.88-5.22c.45-.89.9-1.79 1.32-2.7.43-.88.62-1.9.49-2.88-.06-.49-.23-.94-.4-1.41-.16-.47-.34-.93-.52-1.39-.35-.92-.76-1.82-1.16-2.71-.82-1.77-1.72-3.51-2.74-5.1-.26-.39-.53-.77-.83-1.09-.15-.16-.31-.3-.45-.39a.314.314 0 0 0-.18-.06c-.05 0-.15.06-.23.07-.75.31-1.54.9-2.29 1.42-3.02 2.23-5.97 4.64-8.92 6.97z" fill="#8d5221" stroke-width="none" opacity="1" stroke="none"></path><path id="SvgjsPath26839" d="M137.55 98.39s9.49-11.99 11.27-10.99 4.58 6.65 4.57 8.53c-.02 2.77-2.95 7.4-4.42 8.8-1.47 1.39-3.25 2.25-5.6 1.71-2.35-.54-5.82-8.05-5.82-8.05z" fill="#8d5221" stroke-width="none" opacity="1" stroke="none"></path><path id="SvgjsPath26840" d="M143.64 101.74c.34-1.14.73-2.26 1.13-3.37.4-1.11.84-2.21 1.28-3.3.45-1.09.93-2.16 1.46-3.21.54-1.04 1.08-2.08 1.74-3.05l.07-.11.07.11c.66 1.04 1.28 2.1 1.88 3.2.3.55.58 1.1.85 1.67.28.56.51 1.16.74 1.75l.04.09-.04.11c-.41 1.24-.84 2.46-1.29 3.69-.22.61-.48 1.21-.73 1.81-.26.6-.52 1.19-.87 1.78l-.17.27-.22-.2c-.3-.28-.53-.58-.77-.9-.23-.32-.43-.67-.61-1.03-.35-.73-.56-1.57-.53-2.42v-.05l.02-.04c.44-.87.91-1.73 1.36-2.6l.05.03c-.37.91-.74 1.83-1.13 2.73l.02-.09c.03.77.26 1.51.61 2.16.35.65.82 1.24 1.32 1.7l-.39.07c.3-.51.56-1.11.81-1.69l.72-1.79c.48-1.2.93-2.41 1.38-3.62v.2c-.4-1.18-.85-2.35-1.38-3.47-.52-1.13-1.12-2.22-1.8-3.22h.14c-.63.95-1.08 2.04-1.55 3.11l-1.36 3.24-1.38 3.24c-.46 1.08-.92 2.16-1.41 3.23l-.06-.03z" fill="#6e3404" stroke-width="none" opacity="1" stroke="none"></path></g></g><g id="svga-group-faceshape-wrap"><g id="svga-group-faceshape-single"><path id="SvgjsPath26867" d="M145.4 78.8s-2.4-21.2-9.5-29c-6.7-7.4-11.3-13.2-28.8-17.3-1.8-.4-12.3-.4-14.1 0-17.5 4.1-22.1 9.9-28.8 17.3-7.1 7.8-9.5 29-9.5 29s-3.6 28.1-1.3 37.6 17.4 24.4 26.5 27.4 31.1 3 40.2 0 24.2-17.9 26.5-27.4c2.4-9.5-1.2-37.6-1.2-37.6z" fill="#9c6334" stroke-width="none" opacity="1" stroke="none"></path><path id="SvgjsPath26868" d="M135.9 49.8c-6.7-7.4-11.3-13.2-28.8-17.3-1.8-.4-12.3-.4-14.1 0-17.5 4.1-22.1 9.9-28.8 17.3-7.1 7.8-9.5 29-9.5 29s-3.6 28.1-1.3 37.6 17.4 24.4 26.5 27.4 31.1 3 40.2 0 24.27-17.88 26.5-27.4c2.99-12.73-1.09-37.73-1.09-37.73S143 57.6 135.9 49.8zm10.7 60.6-.1 1.3c0 .4-.4 2.6-.4 2.6l-.3 1.2s-1.4 3.9-1.8 4.7c-1.7 3-3.8 5.7-6.1 8.3-1.2 1.3-2.4 2.5-3.6 3.7-1.2 1.2-2.5 2.3-3.9 3.4-1.3 1.1-2.7 2.1-4.1 3.1s-2.9 1.9-4.3 2.6c-.7.4-8.4 2.2-8.4 2.2s-15.2.9-22.1.5l-2.6-.2c-.9-.1-6-.8-7.6-1.3-3.28-.88-7.4-3.7-8.8-4.7-2.8-2-5.4-4.3-7.8-6.8s-4.7-5.1-6.6-7.9c-1-1.4-1.66-2.64-2.46-4.14-.49-.97-.79-1.77-1.04-2.56-.39-1.24-.89-4.54-1-7.6 0-.9-.1-1.7-.1-2.6v-2.6c0-3.5.2-7 .4-10.5.1-1.8.2-3.5.4-5.3.1-1.8.3-3.5.5-5.3s.4-3.5.6-5.2c.2-1.7.5-3.5.8-5.2s.7-3.4 1.1-5.2c.4-1.7.9-3.4 1.4-5.1.5-1.7 1.1-3.3 1.8-4.9.7-1.6 1.5-3.2 2.4-4.6.2-.4 1.3-1.7 1.6-2 .6-.6 1.2-1.3 1.8-1.9 1.2-1.3 2.4-2.5 3.7-3.7 2.5-2.4 5.3-4.4 8.4-5.9s6.3-2.7 9.7-3.6c.8-.2 1.7-.5 2.5-.7 0 0 3.56-.74 7.5-.9 6.11-.25 10.2.5 10.2.5s4.3 1 5.1 1.3c1.7.5 3.3 1.1 4.9 1.7 3.2 1.3 6.2 2.9 8.9 5 .7.5 3.3 2.8 3.9 3.4 1.3 1.2 2.5 2.5 3.7 3.8.3.3 3 3.6 3.2 4 .9 1.5 1.6 3.1 2.3 4.7 1.3 3.2 2.3 6.6 3.1 10.1.8 3.4 1.4 6.9 1.9 10.4.8 7 1.4 14.1 1.6 21.1 0 3.8 0 7.3-.3 10.8z" fill="#6e3404" stroke-width="none" opacity="1" stroke="none"></path></g></g><g id="svga-group-mouth-single-move" transform="matrix(1,0,0,1,0,0)"><g id="svga-group-mouth-single"><path id="SvgjsPath26822" d="M90.88 126.51s-.27 1.69.86 2.88c1.14 1.19 11.47 2.31 17.34.11 5.87-2.2 6.74-5.28 6.74-5.28s-5.39.45-7.07.11c-1.69-.34-7.66-1.1-8.9-1s-3.37.96-4.36 1.36-4.61 1.82-4.61 1.82z" fill="#a9325e" stroke-width="none" opacity="1" stroke="none"></path><path id="SvgjsPath26823" d="M87.57 126.62s1.87 1.37 4.84.17c2.96-1.19 6.58-2.22 8.13-2.32s7.17 1.35 10.39 1.07c3.22-.29 6.81-1.1 8.21-3.3s.26-3.18-.22-2.66c-.48.51-.69 4.46-3.65 4.22-2.96-.24-6.51-2.62-9.97-3.46-3.46-.83-4.82.93-5.53 1.53s-1.58.42-3.12.41c-1.54-.02-4.73.33-5.43 2.15-.71 1.82-2.27 2.85-3.65 2.19z" fill="#a12855" stroke-width="none" opacity="1" stroke="none"></path></g></g><g id="svga-group-eyes-left-move" transform="matrix(1,0,0,1,1,0)"><g id="svga-group-eyes-left"><g id="svga-group-eyesback-left"><path id="SvgjsPath26960" d="M80.2 77.2c7.5 0 13.5 5.8 13.5 13s-6 13-13.5 13-13.5-5.8-13.5-13 6-13 13.5-13z" fill="#ffffff" stroke-width="none" opacity="1"></path></g><g id="svga-group-eyesiriswrapper-left" transform="matrix(1,0,0,1,0,0)"><g id="svga-group-eyesiriscontrol-left" transform="matrix(1,0,0,1,0,0)"><g id="svga-group-eyesiris-left"><path id="SvgjsPath26906" d="M80.2 84.9c2.9 0 5.3 2.4 5.3 5.3s-2.4 5.3-5.3 5.3-5.3-2.4-5.3-5.3 2.4-5.3 5.3-5.3z" fill="#402300" stroke-width="none" opacity="1"></path><path id="SvgjsPath26907" d="M80.2 85.2c2.8 0 5.1 2.3 5.1 5.1s-2.3 5.1-5.1 5.1-5.1-2.3-5.1-5.1 2.3-5.1 5.1-5.1m0-.6c-3.1 0-5.6 2.5-5.6 5.6s2.5 5.6 5.6 5.6 5.6-2.5 5.6-5.6-2.5-5.6-5.6-5.6z" fill="#211200" stroke-width="none" opacity="1"></path><path id="SvgjsPath26908" d="M77.4 91.7c0 1.3.5 2.5 1.3 3.3.5.1 1 .2 1.5.2 2.8 0 5.1-2.3 5.1-5.1 0-1-.3-2-.8-2.8-.7-.3-1.4-.5-2.2-.5-2.8.1-4.9 2.3-4.9 4.9z" fill="#4f2f08" stroke-width="none" opacity="1"></path><path id="SvgjsPath26909" d="M80.2 87.5c1.5 0 2.7 1.2 2.7 2.7s-1.2 2.7-2.7 2.7-2.7-1.2-2.7-2.7 1.2-2.7 2.7-2.7z" fill="#000000" stroke-width="none" opacity="1"></path><path id="SvgjsPath26910" d="M79 87.3c.8 0 1.4.6 1.4 1.4s-.6 1.4-1.4 1.4-1.4-.6-1.4-1.4.7-1.4 1.4-1.4zm2.7 4c.5 0 .9.4.9.9s-.4.9-.9.9-.9-.4-.9-.9.4-.9.9-.9z" fill="#ffffff" stroke-width="none" opacity="1"></path></g></g></g><g id="svga-group-eyesfront-left"><path id="SvgjsPath26968" d="M80.2 76.7c-7.8 0-14.1 6.1-14.1 13.6s6.3 13.6 14.1 13.6 14.1-6.1 14.1-13.6S88 76.7 80.2 76.7zm-9 16.3c-5.8-3.4-4.7-12.6 6.7-8.9 8.5 2.8 14.4 10.4 14.4 10.4C82 95.8 76.9 96.4 71.2 93z" fill="#9c6334" stroke-width="none" opacity="1" stroke="none"></path><path id="SvgjsPath26969" d="M93.2 95.3s-3.9-3.3-6.5-4.7c-2.6-1.4-6.6-5.5-11.2-5.6-4.6-.1-9.4 3.8-9.4 3.8s.9-5.2 4.1-7.8c3.2-2.6 6.2-1.3 10.3 1.1s10.9 8.5 12.7 13.2z" fill="#945a2a" stroke-width="none" opacity="1" stroke="none"></path><path id="SvgjsPath26970" d="M93.2 95.3c-1.8-1.8-3.8-3.5-5.9-5.1-1-.8-2.1-1.5-3.2-2.2l-1.6-1c-.6-.3-1.1-.7-1.7-1-1.2-.7-2.5-1.2-3.9-1.4-1.4-.2-2.8-.1-4.1.2-.5.1-1 .3-1.5.5-.5-.2-1.8-.7-3.2-1.3.7-1.2 1.6-2.4 2.8-3.2.6-.4 1.3-.8 2.1-.9.8-.1 1.5-.1 2.3.1 1.5.4 2.9 1.1 4.3 1.9 2.8 1.6 5.3 3.6 7.7 5.8 1.2 1.1 2.3 2.3 3.3 3.5 1 1.3 2 2.6 2.6 4.1-.6-1.5-1.5-2.9-2.4-4.2-1-1.3-2.1-2.5-3.2-3.6-1.2-1.1-2.4-2.2-3.6-3.2-1.3-1-2.6-2-4-2.8-1.4-.8-2.8-1.6-4.5-2-.8-.2-1.7-.2-2.5-.1s-1.6.5-2.3 1c-1.3.9-2.3 2.1-3 3.4-.9-.4-1.8-.9-2.6-1.4-.1-.1-.3-.1-.4.1-.1.1-.1.3.1.4.7.5 1.7 1 2.6 1.4-.3.5-.5 1-.7 1.6-1.6-.4-3.5-1-4.8-1.7-.1-.1-.3 0-.4.1s0 .3.1.4c1.3.7 3.2 1.3 4.9 1.7-.1.3-.2.7-.3 1-1.7.1-4.3 0-6.5-.9-.2-.1-.3 0-.4.2s0 .3.2.4c2 .8 4.2 1 5.9 1h.6c-.1.2-.1.5-.2.7 0 .1 0 .2.1.2.1.1.3.1.4.1.5-.3.9-.7 1.4-1 .1.7.2 1.4.6 2.1.5 1.2 1.4 2.1 2.4 2.8 2.1 1.4 4.5 2.3 6.9 2.6 1.2.2 2.5.2 3.7.2 1.2 0 2.5-.1 3.7-.2 2.4-.2 4.7-.6 7.1-.9.3.2.7.4 1.1.6zM67.8 84.6c1 .5 2 .9 2.7 1.1-.5.2-1 .5-1.4.8-.4-.1-1.1-.2-1.9-.4.1-.5.4-1 .6-1.5zm-.9 2c.5.1 1 .2 1.4.3-.1.1-.2.2-.3.2-.1.1-.3.2-.4.2-.1 0-.4.1-1 .1.2-.2.2-.5.3-.8zm-.3 1.4c-.1 0-.1.1-.2.1V88h.2zm18.3 7.1c-2.4.2-4.9.2-7.3-.1-2.4-.4-4.7-1.2-6.7-2.5-1-.7-1.8-1.6-2.4-2.6-.3-.7-.5-1.4-.6-2.1 1.7-.8 3.4-1.4 5.1-1.7 1.2-.2 2.4-.2 3.6.1 1.2.2 2.3.7 3.3 1.2 1.1.6 2.2 1.3 3.3 1.9 1.1.6 2.2 1.3 3.3 1.9l5.4 3.3c-2.3.3-4.6.5-7 .6z" fill="#131114" stroke-width="none" opacity="1" stroke="none"></path></g></g></g><g id="svga-group-eyes-right-move" transform="matrix(1,0,0,1,-1,0)"><g id="svga-group-eyes-right"><g id="svga-group-eyesback-right"><path id="SvgjsPath26961" d="M119.8 77.2c7.5 0 13.5 5.8 13.5 13s-6 13-13.5 13-13.5-5.8-13.5-13 6-13 13.5-13z" fill="#ffffff" stroke-width="none" opacity="1"></path></g><g id="svga-group-eyesiriswrapper-right" transform="matrix(1,0,0,1,0,0)"><g id="svga-group-eyesiriscontrol-right" transform="matrix(1,0,0,1,0,0)"><g id="svga-group-eyesiris-right"><path id="SvgjsPath26911" d="M119.8 85.5c2.6 0 4.7 2.1 4.7 4.7s-2.1 4.7-4.7 4.7-4.7-2.1-4.7-4.7 2.1-4.7 4.7-4.7z" fill="#402300" stroke-width="none" opacity="1"></path><path id="SvgjsPath26912" d="M119.8 85.8c2.4 0 4.4 2 4.4 4.4s-2 4.4-4.4 4.4-4.4-2-4.4-4.4 1.9-4.4 4.4-4.4m0-.5c-2.7 0-4.9 2.2-4.9 4.9s2.2 4.9 4.9 4.9 4.9-2.2 4.9-4.9-2.2-4.9-4.9-4.9z" fill="#211200" stroke-width="none" opacity="1"></path><path id="SvgjsPath26913" d="M117.3 91.5c0 1.1.4 2.2 1.2 2.9.4.1.8.2 1.3.2 2.4 0 4.4-2 4.4-4.4 0-.9-.3-1.8-.7-2.4-.6-.3-1.2-.5-1.9-.5-2.4 0-4.3 1.9-4.3 4.2z" fill="#4f2f08" stroke-width="none" opacity="1"></path><path id="SvgjsPath26914" d="M119.8 87.8c1.3 0 2.4 1.1 2.4 2.4s-1.1 2.4-2.4 2.4-2.4-1.1-2.4-2.4 1.1-2.4 2.4-2.4z" fill="#000000" stroke-width="none" opacity="1"></path><path id="SvgjsPath26915" d="M118.8 87.7c.7 0 1.2.5 1.2 1.2s-.5 1.2-1.2 1.2-1.2-.5-1.2-1.2.5-1.2 1.2-1.2zm2.3 3.5c.4 0 .8.4.8.8s-.4.8-.8.8-.8-.4-.8-.8.4-.8.8-.8z" fill="#ffffff" stroke-width="none" opacity="1"></path></g></g></g><g id="svga-group-eyesfront-right"><path id="SvgjsPath26971" d="M119.8 76.7c-7.8 0-14.1 6.1-14.1 13.6s6.3 13.6 14.1 13.6 14.1-6.1 14.1-13.6-6.3-13.6-14.1-13.6zm9.9 14.5c-5.8 3.4-11.2 5.4-21.5 4.2 0 0 6.2-6.8 15-8.6s12.2 1 6.5 4.4z" fill="#9c6334" stroke-width="none" opacity="1" stroke="none"></path><path id="SvgjsPath26974" d="M107.3 96.1s3.9-3.3 6.5-4.7c2.6-1.4 7.5-4.4 12.1-4.5 4.6-.1 7.3 2.1 7.3 2.1s-2.7-4.8-5.9-7.4-5-.8-9.1 1.6c-4.1 2.5-9.1 8.2-10.9 12.9z" fill="#945a2a" stroke-width="none" opacity="1" stroke="none"></path><path id="SvgjsPath26975" d="M139.7 88.3c-2.7.2-5.5-.1-6.9-.3l-.6-.9h.4c1.9 0 4.2-.2 5.9-.8.1-.1.2-.2.2-.4s-.2-.2-.4-.2c-1.8.7-4.5.8-6.4.7-.2-.4-.5-.7-.8-1.1 1.3-.3 2.5-.7 3-1 .1-.1.2-.2.1-.4s-.2-.2-.4-.1c-.5.3-1.7.6-3.1 1-.9-1.2-1.9-2.3-3.1-3.3-.6-.5-1.2-1-2-1.3-.8-.3-1.6-.3-2.4-.1-.8.2-1.5.6-2.2.9-.7.4-1.3.8-2 1.2-2.7 1.5-5 3.6-7 6-1 1.2-1.9 2.4-2.7 3.7-.8 1.3-1.6 2.7-2.1 4.1 1.2-2.8 3-5.3 5.1-7.6 2-2.3 4.3-4.3 7-5.8.7-.4 1.3-.8 2-1.2.7-.4 1.3-.7 2-.9.7-.2 1.4-.1 2.1.1s1.3.7 1.8 1.2c1 .9 2 1.9 2.8 3-1 .3-2 .5-2.8.7-.2 0-.5 0-.7-.1-1.3-.1-2.6.2-3.8.4-1.2.3-2.4.7-3.6 1.2-1.1.5-2.3 1.1-3.3 1.7-1.1.7-2.1 1.3-3.1 2.1-2 1.5-3.9 3.1-5.5 5 .4-.2.7-.5 1.1-.7 2.2.4 4.4.5 6.6.5 2.3 0 4.6-.3 6.8-.9 2.2-.6 4.3-1.5 6.3-2.6.5-.3 1-.6 1.5-.8.5-.3 1-.6 1.4-1 .5-.4.9-.8 1.2-1.2.1-.1.2-.3.2-.4.2.1.4.2.5.3.1.1.2.1.3 0 .1-.1.2-.2.1-.4-.1-.1-.1-.2-.2-.3 1.1.1 2.8.3 4.6.3.6 0 1.3 0 1.9-.1.2 0 .3-.2.3-.3.2.2.1 0-.1.1zm-7.6-.6c-.3-.2-.5-.4-.8-.7h.4c.1.3.2.5.4.7zm-1.6-2.1c.2.3.5.6.7.9-.5 0-.9 0-1.2-.1-.4-.2-.8-.3-1.2-.4.6-.1 1.1-.3 1.7-.4zm1.4 3.5c-.3.4-.8.8-1.2 1.1s-.9.6-1.4.9-1 .6-1.5.8c-2 1.1-4.1 1.9-6.2 2.6-2.2.6-4.4.9-6.6 1.1-2.2.1-4.4 0-6.5-.1 1.7-1.1 3.4-2.1 5.1-3.1 2.1-1.2 4.2-2.4 6.4-3.3 1.1-.5 2.2-.9 3.3-1.2l2.4-.6h.8c1.2 0 2.4.2 3.5.5.8.2 1.6.6 2.3 1-.2 0-.3.1-.4.3z" fill="#131114" stroke-width="none" opacity="1" stroke="none"></path></g></g></g><g id="svga-group-facehighlight-single"></g><g id="svga-group-eyebrows-left-move" transform="matrix(1,0,0,1,0,0)"><g id="svga-group-eyebrows-left-rotate" transform="matrix(1,1.7453292519943295e-9,-1.7453292519943295e-9,1,1.3416720889836142e-7,-1.3713983548768738e-7)"><g id="svga-group-eyebrows-left"><path id="SvgjsPath27019" d="M63.58 81.61s2.73-6.07 7.31-8.29c5.98-2.9 21.19 2.04 22.07 2.67.87.63.35 3.77-1.13 3.92-1.48.15-8.53-2.96-13.8-4.33-5.27-1.38-9.96 0-14.45 6.03z" fill="#080609" stroke-width="none" opacity="1"></path><path id="SvgjsPath27020" d="M63.57 81.64c.12-.13.26-.26.39-.42l.37-.43c.24-.28.49-.55.74-.81.5-.52 1.02-1.03 1.58-1.49 1.09-.93 2.31-1.71 3.61-2.24 1.3-.53 2.7-.8 4.1-.78 1.41.01 2.8.26 4.18.67 2.78.78 5.52 1.77 8.27 2.72 1.38.47 2.75.96 4.22 1.28.19.03.37.07.57.07.2.01.44-.01.64-.1.41-.18.69-.52.88-.87.2-.35.32-.73.4-1.12.08-.39.1-.79.05-1.2-.03-.2-.07-.4-.16-.61-.08-.2-.23-.4-.44-.51-.36-.18-.7-.28-1.05-.41-.7-.23-1.39-.45-2.09-.66a90.5 90.5 0 0 0-4.22-1.12c-2.83-.68-5.67-1.3-8.59-1.47-1.45-.08-2.93-.04-4.37.27-.72.16-1.44.39-2.11.75-.66.35-1.28.77-1.85 1.24-1.14.95-2.13 2.09-2.98 3.3-.43.6-.82 1.25-1.18 1.9-.18.33-.35.66-.52.99-.08.17-.16.34-.24.5l-.11.26-.06.13-.02.06-.01.03-.01.02c-.01.01-.01.04.01.05zm.03-.07c1.45-2.5 3.19-4.99 5.44-6.73.56-.43 1.16-.82 1.78-1.13.61-.32 1.28-.52 1.97-.67 1.37-.27 2.8-.32 4.23-.3 1.43.02 2.86.15 4.29.34 1.43.18 2.85.43 4.27.75 1.42.32 2.81.7 4.2 1.13.69.21 1.39.45 2.06.71.33.13.68.27.98.42.24.13.34.5.36.84.04.7-.13 1.44-.48 2.02-.17.29-.41.53-.67.62-.13.05-.26.06-.42.05-.15-.01-.33-.05-.5-.09-.68-.16-1.37-.39-2.05-.62L87 78.17c-2.74-.99-5.47-2.05-8.3-2.83-1.41-.39-2.9-.66-4.37-.62-1.48.03-2.95.36-4.3.96-1.35.59-2.56 1.49-3.64 2.5-.55.5-1.04 1.05-1.51 1.62-.23.29-.47.57-.69.87-.11.14-.24.3-.31.44-.08.14-.16.31-.28.46z" fill="#000000" stroke-width="none" opacity="1"></path></g></g></g><g id="svga-group-eyebrows-right-move" transform="matrix(1,0,0,1,0,0)"><g id="svga-group-eyebrows-right-rotate" transform="matrix(1,1.7453292519943295e-9,-1.7453292519943295e-9,1,1.3597821180155734e-7,-2.1397181626525708e-7)"><g id="svga-group-eyebrows-right"><path id="SvgjsPath27021" d="M136.97 82.09s-2.84-5.43-7.28-7.34c-5.81-2.49-20.12 2.3-20.92 2.88s-.19 3.42 1.23 3.52c1.41.1 8-2.86 12.98-4.22 4.95-1.34 9.48-.19 13.99 5.16z" fill="#080609" stroke-width="none" opacity="1"></path><path id="SvgjsPath27022" d="m137 82.06-.01-.02-.02-.03-.03-.06-.06-.12-.12-.23c-.08-.15-.16-.31-.25-.45-.18-.3-.35-.59-.54-.88-.37-.59-.77-1.15-1.2-1.69-.86-1.08-1.84-2.09-2.97-2.92-.56-.41-1.17-.78-1.81-1.09-.64-.31-1.34-.49-2.04-.63-1.39-.25-2.8-.25-4.18-.15-2.77.22-5.46.84-8.13 1.51-1.33.35-2.66.7-3.97 1.1-.66.2-1.31.41-1.96.64-.33.12-.64.22-.98.39-.2.1-.33.29-.4.47s-.11.37-.13.56a3.636 3.636 0 0 0 .52 2.1c.2.32.48.61.88.77.19.07.42.1.62.08.19-.01.37-.04.54-.09 1.38-.32 2.67-.79 3.96-1.25 2.58-.92 5.16-1.87 7.78-2.64 1.3-.4 2.61-.65 3.96-.69 1.33-.04 2.68.17 3.93.62 1.26.45 2.45 1.13 3.53 1.95.54.41 1.06.86 1.56 1.32.25.23.49.47.74.71l.36.38c.13.14.27.26.39.37.02.01.03-.02.03-.03zm-.34-.4c-.08-.11-.21-.26-.32-.39-.22-.27-.45-.52-.69-.77-.47-.5-.97-.99-1.51-1.43-1.06-.89-2.25-1.66-3.55-2.18-1.3-.52-2.72-.78-4.13-.78-1.42-.01-2.82.26-4.14.65-2.66.76-5.22 1.78-7.79 2.74l-1.92.71c-.64.23-1.29.45-1.93.62-.16.04-.32.07-.47.09-.15.02-.27.01-.4-.03-.25-.08-.49-.29-.66-.54-.35-.51-.55-1.18-.53-1.82.01-.31.09-.64.31-.76.28-.15.6-.28.92-.41.64-.25 1.28-.48 1.93-.69 1.3-.42 2.63-.8 3.95-1.12 1.34-.32 2.68-.57 4.04-.77 1.36-.2 2.72-.34 4.07-.4s2.72-.05 4.03.18c.66.11 1.3.28 1.9.56.61.27 1.19.6 1.75.98 2.21 1.53 3.97 3.75 5.45 5.97-.13-.15-.22-.3-.31-.41z" fill="#000000" stroke-width="none" opacity="1"></path></g></g></g><g id="svga-group-nose-single-move" transform="matrix(1,0,0,1,0,0)"><g id="svga-group-nose-single"><path id="SvgjsPath27006" d="M97.86 101.45s-4.22.78-5.78 2.4-2.08 5 .13 6.5c2.21 1.49 2.04.6 4.03-.39.26-.13.65-.71 1.56.71.91 1.43 1.95 2.27 2.73 1.62.78-.65 1.62-2.73 2.34-2.79.71-.06 2.21 1.69 2.79 1.88.58.19 2.92-.91 3.38-2.4s.39-4.03-1.95-6.04-7.35-1.49-9.23-1.49z" fill="#a46c3f" stroke-width="none" opacity="1" stroke="none"></path><path id="SvgjsPath27007" d="M97.86 101.45c-1.05.22-2.09.5-3.09.88-.5.19-.99.41-1.46.67-.46.27-.91.57-1.26.97-.71.8-1.09 1.85-1.18 2.89-.1 1.04.18 2.13.89 2.86.17.19.38.33.58.49.22.14.45.28.68.4.23.11.46.23.69.27.23.05.43.03.63-.07.41-.21.85-.59 1.33-.86l.36-.21c.03-.01.07-.04.08-.05l.06-.04c.06-.04.12-.09.21-.13.16-.1.43-.12.62-.05.2.06.33.17.45.27.23.21.41.44.57.68.16.23.29.43.45.64.31.4.67.78 1.06.99.19.11.38.14.53.1.08-.01.15-.06.22-.11.08-.06.16-.14.23-.24.31-.37.59-.84.88-1.29.15-.23.3-.46.48-.68.09-.11.19-.23.3-.34.06-.06.13-.11.19-.16.08-.05.16-.1.27-.14.23-.09.47-.02.63.03.08.03.15.07.23.1l.2.12c.25.16.47.34.68.51.42.34.81.74 1.2 1.02.09.06.19.12.21.11.02.01.08 0 .13 0l.16-.03c.23-.05.46-.15.69-.25.45-.22.9-.49 1.26-.83.37-.34.67-.73.8-1.2.29-.98.26-2.06-.04-3.05-.3-1-.92-1.89-1.69-2.61-.77-.72-1.8-1.12-2.83-1.36-1.05-.23-2.12-.32-3.19-.35-1.06-.02-2.14.04-3.21.05zm0 0c2.14-.06 4.3-.2 6.43.2 1.05.22 2.12.56 2.96 1.29.83.71 1.52 1.61 1.88 2.66.37 1.04.45 2.2.18 3.3-.06.27-.19.57-.34.81-.16.25-.34.47-.55.67-.41.4-.88.73-1.38.98-.26.12-.52.24-.81.31-.15.03-.3.07-.51.05-.25-.02-.38-.14-.52-.21-.49-.34-.87-.7-1.28-1.03-.2-.16-.41-.32-.61-.45l-.15-.09-.14-.06c-.09-.02-.14-.04-.16-.02-.02 0-.05.03-.09.05-.04.03-.07.06-.11.1-.08.08-.16.17-.23.26-.15.2-.3.42-.44.64-.29.44-.57.91-.95 1.36-.1.11-.2.22-.34.33-.14.1-.31.2-.49.24-.38.09-.75-.02-1.02-.17-.56-.31-.92-.76-1.26-1.21-.17-.22-.32-.47-.46-.69-.13-.22-.29-.42-.45-.57a.78.78 0 0 0-.22-.15c-.06-.02-.09-.03-.16.01a.75.75 0 0 0-.14.08c-.03.02-.06.04-.11.07l-.1.05c-.11.06-.23.11-.35.18-.23.12-.45.26-.68.4-.23.14-.45.3-.74.42-.28.13-.64.15-.94.07-.3-.07-.55-.22-.79-.35-.24-.14-.47-.29-.69-.45-.22-.18-.45-.35-.63-.57-.76-.86-1-2.05-.85-3.13.14-1.08.59-2.13 1.33-2.93.77-.79 1.79-1.22 2.79-1.59 1.02-.37 2.07-.65 3.12-.86z" fill="#6e3404" stroke-width="none" opacity="1" stroke="none"></path></g></g><g id="svga-group-hair-front"><path id="SvgjsPath27116" d="M176.9 108.7c.1 0 .1-.1 0 0 1-1 1.5-2.3 1.6-3.6.2-2.2-.6-4.4-1.9-6.1-.8-1-1.7-1.8-2.9-2.2.2-.4.4-.9.5-1.3.3-1.1.1-2.2-.1-3.3-.3-1.7-1.1-3.7-2.8-4.4-.8-.3-1.5-.5-2.3-.3.6-1.6.6-3.4-.1-5-.6-1.5-1.8-2.8-3.2-3.6-.8-.4-1.7-.7-2.6-.8-.3 0-1.9 0-1.5.2-.1 0-.2-.1-.3-.1.3-1.7.1-3.7-.3-5.2-.8-3.2-2.5-5.5-5.2-7 0-1.7-.2-3.5-.5-4.8-.7-2.9-2.5-6.3-5.4-7.4v-.3c.1-.1.1-.2.1-.3.1-.5.1-1 0-1.6-.1-.7-.3-1.2-.6-1.9-.5-1-1.2-2.1-2.1-2.9-.9-.8-1.9-1.3-3-1.2-.5-1.5-1.4-2.8-2.6-3.9-1.5-1.3-3.3-2.2-5.2-2.5-1.2-.2-2.2 0-3.1.2-.3-1.5-.9-3-1.6-4.1-1.8-2.8-4.6-3.9-7.8-2.8-.4.2-.7.4-1 .6-2.8-3-7.5-4.5-10.2-1.8-1.1-.8-2.4-1.3-3.8-1.5-1.7-.7-3.6-.6-5.2.5-.3-.2-.7-.4-1.2-.5-1.2-.3-2.6-.1-3.6.8-.2.2-.5.5-.6.9-1.8-2.1-5.1-3.2-7.5-2.7-1.6.3-3 1.4-3.8 2.7-.3.5-.5 1-.6 1.4-2.7-2.3-6.6-3.4-9.8-1.4-1.5.9-3.1 3.2-3.3 5.3-1.5-1.3-3.6-1.8-5.5-1.1-1.9.6-3.3 2.2-3.8 4.1-.2.8-.2 1.6.1 2.3-2.7-.1-5.5.6-7.2 2.7-1.1 1.4-1.7 3.1-1.7 4.9 0 .7.1 1.3.3 2-1.5.2-2.9.8-4.1 1.6-2 1.3-3.7 3.1-4.4 5.4-.3 1-.5 2.1-.3 3.1-1.7.1-3.2.8-4.5 1.8-1.7 1.5-2.6 3.8-2.6 6-.3 1.6-.2 3.3.3 4.8-3.4.7-6.7 3.9-7.7 6.9-1.1 3.4 0 7.8 2.6 10.4-4.5 1.4-7.8 7-6.5 11.8.5 1.7 1.5 3.2 2.9 4.2-.1 0-.2 0-.3.1-4.2 1.2-5.9 6-4.9 9.9.5 1.8 1.5 3.2 2.9 4.2l-.3.6c-.2.1-.4.2-.5.2-.9.5-1.5 1.3-1.9 2.3-.5.7-.9 1.4-1.1 2.3-.6 3.2 1.7 6.5 5.1 6.6h.5c1 .8 1.4 1.9 2.4 2.8.8.7 1.8 1.1 2.8 1.4.6.2 1.3.3 1.9.3h1.3c2 .8 4.2.8 6.2.2l.9.6c.7.7 1.5 1.2 2.4 1.5.9.3 1.9.4 2.9.2.8.4 1.6.7 2.6.7.6 0 1.1-.1 1.6-.3.3.3.7.5 1.1.6.5.5 1.2.9 1.9 1.1 2.8.7 5.3-1.7 5.3-4.4 0-1.2-.4-2.1-1.1-2.9.5-.8.8-1.7.8-2.6 0-1.8-1-3.4-2.5-4.3.8-1.2 1.2-2.7 1.3-4.1 0-1.8-.8-3.5-2.1-4.6.3-.7.5-1.5.4-2.2 0-1.1-.3-2.2-.8-3.2l-.6-.9c1-.9 1.7-2.1 1.5-3.5-.1-.9-.4-1.7-1-2.4.5-1 .7-2.2.4-3.3-.3-1.1-.9-2-1.7-2.6.6-.5 1-1.2.9-2 0-.5-.2-1-.4-1.5 2.3-1.1 2.9-4.1 1.8-6.3 1.4-1 2.5-2.4 3-4.1.1-.6.3-1.4.3-2 0-.3 0-.7-.1-1 0-.3-.1-.7-.2-1.1-.2-.6-.4-1.2-.8-1.7-.1-.4-.3-.7-.5-1.1-.5-1-1.4-1.7-2.3-2.3h-.1v-.4c.2-.2.3-.4.5-.6.6-.6 1-1.3 1.2-2.2.1-.3.2-.6.1-.9.1-.4.1-.8.1-1.3.9 0 1.8-.1 2.7-.2.1.2.2.5.4.7.2.2.5.2.6-.1.1-.2.1-.5.2-.7 4.8-.7 9.6-2 14.3-2.6 6.9-.9 13.8-1.3 20.7-1.2 3 0 6.1.2 9.1.4 1.5.1 4.6-22.2 4.6-22.2.9 2.4 1.4 6.1 1.8 10.5.6 6.8-.5 12.5-.5 12.5s11.5 1.9 20.7 5c.6.2.1 1.3.3 1.9.3 1.2 1 2.3 1.9 3.1.2.2.4.4.7.6.5.4 1.1.7 1.6.9-.2.2-.4.3-.6.6-1 1-1.5 2-1.9 3.4-.8 2.7.2 5.6 2.1 7.6.5.5 1.1.9 1.7 1.2-.1 0-.2.1-.4.1-1.1.5-1.9 1.2-2.5 2.2-.1.1-.2.1-.3.2-.2.2-.3.4-.5.6-.5.6-.7.9-.9 1.8-.4 1.7-.1 3.2 1 4.6l.3.3c-1.2 1-2.1 2.3-2.5 3.8-.3 1.1-.3 2.3 0 3.4 0 2 1.1 4.1 2.7 5.4-.1.1-.1.2-.1.3-.1 0-.2.1-.3.2-1.3.7-2.3 2.2-2.1 3.7.1.8.3 1.6.8 2.3-1.2.8-2.1 2.1-2.2 3.7-.1 1.1.1 2.3.7 3.3.2.3.4.6.6.8-.3.3-.5.6-.7.9-.2.5-.4.9-.4 1.4-.3 1.6.2 3.4 1.8 4.5 0 .1-.1.2-.1.3-.2 1.1 0 2.1.8 2.8.8.8 2.1 1.1 3.2.7.9-.3 1.6-.8 2-1.6.5.8 1.3 1.4 2.2 1.7 1.1.5 2.5.7 3.8.4 1-.2 1.9-.6 2.6-1.2 2.7 1.6 6.5.4 8.3-2.3.4-.7.7-1.4 1-2.1.9.4 2 .5 3 .2 1.2-.3 2.3-1 3-2 .9.3 2 .4 3 .2 2.3-.5 4.4-2.6 4.4-5 2-.4 3.8-1.6 4.3-3.5.2-1 .1-2.1-.2-3 .9-.7 1.5-1.8 1.7-3 .1-.7.1-1.2-.1-1.9-.1-.3-.2-.6-.4-.9.3-.6.6-1.2.8-1.9.7-2.9-1.1-6.5-4-7.6zM116 37.2c0-.3 0-.6-.1-.9.5.4.9.9 1.2 1.4-.3-.2-.7-.3-1.1-.5z" fill="#1b1507" stroke-width="none" opacity="1" stroke="none"></path><path id="SvgjsPath27117" d="M90.6 27.6c-1.3.2-2.6.9-3.6 1.8-.8.7-1.4 1.7-1.8 2.7-1-.5-2.1-1-3.2-1.4-1.4-.5-2.9-.7-4.4-.5-1.6.2-3 1-4 2.2-.5.6-.9 1.3-1.1 2.1 0 .2-.1.3-.1.5-.7-.3-1.5-.6-2.3-.6-1.4-.1-3 .2-4.2 1.1-2.1 1.6-2.9 4.4-2.2 6.8-1 0-1.9.2-2.8.6-1.2.5-2.3 1.3-3.2 2.2-.9.9-1.6 2.1-2 3.3-.4 1.1-.5 2.2-.3 3.3-2.6-.3-5.3.6-7 2.6-1.7 1.9-2.3 4.7-1.8 7.2-2.9-.2-5.9 1.2-7.5 3.7-1.5 2.3-1.7 5.4-.5 8-3.6.7-6.8 3.3-8.1 6.8-.7 1.9-.8 4.1-.4 6.1.3 1.6 1 3 2 4.3-2.9 1.7-5 4.7-5.5 8s.5 6.8 2.6 9.3c-2.4 1.4-4.1 4-4.2 6.7-.1 1.6.4 3.2 1.2 4.5.6 1 1.5 1.9 2.5 2.6-1.5.8-2.6 2.2-3.2 3.7-.7 1.8-.8 3.9.1 5.7l.2-.1c-.7-1.7-.4-3.7.4-5.3.8-1.6 2.2-2.9 3.9-3.4l1.2-.4-1.2-.6c-1.2-.6-2.1-1.6-2.8-2.8-.6-1.2-.9-2.5-.8-3.8.2-2.6 2.1-4.9 4.5-5.7l1.4-.4-1.1-1.1c-2.2-2.2-3.3-5.6-2.8-8.6.6-3 2.7-5.8 5.6-7l1.5-.6-1.1-1.1c-2.4-2.3-3.3-6.2-2.2-9.3 1.1-3.2 4.2-5.7 7.6-6l1.4-.2-.8-1.1c-1.5-2.1-1.7-5.2-.4-7.5 1.3-2.3 4.2-3.8 7-3.5l.7.1-.2-.6c-.9-2.3-.3-5.2 1.3-7.1 1.7-1.9 4.4-2.8 6.9-2.3l.5.1-.1-.6c-.2-1.1 0-2.3.4-3.4s1.1-2 1.9-2.8c1.7-1.6 4-2.5 6.1-2.1l1.4.3-.6-1.3c-.9-2-.2-4.6 1.6-5.8.8-.6 1.9-.9 3-.8s2.1.5 2.8 1.2l3.1 3-1.6-3.9c-.4-.9-.1-2.1.7-3s1.8-1.5 2.9-1.7c1.2-.2 2.5 0 3.7.4 1.2.4 2.5.9 3.7 1.5l.8.3.2-.8c.2-1.1.8-2.1 1.6-3 .8-.8 1.8-1.4 3-1.7 2.3-.6 4.9.3 6.5 2.2l.2-.1c-1.5-2.1-4.3-3.3-7-2.9zm-.1 6.4c1.1-1.1 3.2-1.2 4.6 0l.1-.1c-1.2-1.4-3.6-1.6-5.2-.4-1.2.9-1.6 2.5-1.3 4-1.9-.7-4.2-.7-6.1 0-2.2.7-4.1 2.2-5.2 4.3-1.1-.4-2.3-.6-3.6-.6-1.5.1-3 .6-4.2 1.5-2.2 1.6-3.5 4.3-3.4 7-1.2.1-2.4.4-3.4.9-1.3.7-2.5 1.6-3.4 2.8-.9 1.1-1.6 2.5-1.9 3.9-.3 1.3-.3 2.6-.1 3.8-2.7-.1-5.3 1.5-6.4 3.9-1 2.2-.6 4.9.9 6.8-1.1-.1-2.1.2-3.1.7-1.3.7-2.4 1.8-3 3.2-.8 2.1-.3 4.7 1.1 6.4-2.3.4-4.3 2-5.2 4.2-.6 1.5-.6 3.1-.1 4.6.3.9.8 1.8 1.4 2.5-2.2 1.1-3.9 3.1-4.5 5.5-.7 2.6 0 5.5 1.8 7.6-.5.7-.9 1.5-1.2 2.3-.3 1.2-.4 2.4-.2 3.5.2 1.2.6 2.3 1.3 3.3.5.7 1 1.3 1.7 1.8-1.3 1.7-1.9 3.9-1.8 5.9.1 2.2 1 4.4 2.6 5.9-.6.4-1.1 1-1.5 1.7-.5.9-.8 1.8-.9 2.8s0 2 .4 2.9c.3.9.9 1.7 1.7 2.3l.1-.1c-1.4-1.2-1.8-3.2-1.5-4.9.3-1.7 1.3-3.3 2.9-4l.8-.3-.7-.6c-1.6-1.4-2.4-3.5-2.3-5.6 0-2.1.8-4.2 2.3-5.5l1-.8-1.2-.6c-1.6-.8-2.6-2.5-2.8-4.3-.2-1.8.3-3.7 1.5-4.8l.8-.7-.8-.8c-1.6-1.5-2.4-4.1-1.8-6.2.5-2.2 2.4-4.1 4.6-4.6l2.2-.6-2-1.5c-1.9-1.2-2.8-3.9-2-6 .8-2.1 3.2-3.7 5.5-3.3l5 .7-4.5-2.2c-2.1-1-3.3-3.8-2.5-6 .8-2.3 3.5-3.8 5.9-3.3l1.8.4-1.4-1.1c-2-1.5-2.7-4.5-1.7-6.8 1-2.3 3.7-3.8 6.1-3.5l.5.1-.1-.5c-.3-1.3-.2-2.6.2-3.9.4-1.2 1.1-2.4 1.9-3.4 1.6-1.8 4-3 6.4-2.9l-.1.1c-.4.5-.7 1.2-.8 1.9-.1.5 0 1.1.2 1.6-1.2.6-2.1 1.5-2.7 2.7-.6 1.1-.9 2.5-.7 3.8-.7.4-1.3 1-1.7 1.7-.5.8-.9 1.7-1.1 2.7-.2.9-.2 1.9.1 2.9.1.6.4 1.1.7 1.6-1.6.8-2.8 2.3-3 4.1-.3 1.9.4 3.9 1.8 5.1-.9.6-1.6 1.4-2.1 2.3-.6 1.1-1 2.3-1.2 3.5-.1 1.2 0 2.5.4 3.7.3 1 .9 1.9 1.6 2.7-1.8.8-3.2 2.6-3.5 4.6-.2 1.9.5 3.8 1.9 5.2-1.6 1.3-2.6 3.3-2.5 5.4.1 2 1.1 3.8 2.6 5-.5.5-.9 1-1.2 1.6-.5 1-.8 2.2-.9 3.3 0 1.1.1 2.3.6 3.4.3.7.8 1.4 1.3 2-1.2 1.6-1.8 3.6-1.7 5.5 0 2 .7 3.9 2 5.4-1.6 1.2-2.5 3.2-2.4 5.1.1 2.2 1.5 4.3 3.5 5.1l.1-.2c-1.7-1.1-2.8-3-2.7-4.9.1-1.9 1.3-3.6 3-4.3l.9-.4-.8-.8c-1.3-1.3-1.9-3.2-1.8-5 0-1.8.8-3.6 2-4.8l.9-.8-1-.7c-1.3-1-1.9-2.7-1.8-4.4.1-1.7.9-3.3 2.2-4.2l1.2-.8c-.3.7-.5 1.4-.5 2.1-.1 1.2.1 2.3.6 3.3.4.8.9 1.6 1.7 2.1-.5.3-.9.8-1.2 1.3-.4.7-.6 1.6-.5 2.4 0 .8.4 1.6.9 2.2.5.6 1.2 1.1 2 1.2v-.1c-.8-.1-1.4-.7-1.8-1.3-.4-.6-.6-1.3-.6-2.1s.2-1.4.6-2c.4-.6.9-1.1 1.5-1.2l1-.2-.9-.5c-.8-.5-1.4-1.3-1.8-2.2-.4-.9-.5-1.9-.5-2.9.1-1 .4-1.9 1-2.6.6-.8 1.4-1.3 2.3-1.7l1.1-.5-1.1-.4c-1-.4-2-1.1-2.7-1.9-.7-.9-1.1-1.9-1.2-3.1-.1-1.1.1-2.3.6-3.4s1.3-2 2.3-2.5l.3-.2-.3-.2c-.7-.5-1.2-1.2-1.5-2-.3-.8-.5-1.7-.3-2.6.1-.9.4-1.7.9-2.4s1.2-1.2 2-1.4l.6-.1-.5-.4c-.6-.5-1.1-1.3-1.3-2.1-.3-.8-.4-1.6-.4-2.5s.1-1.7.4-2.5c.2-.8.7-1.5 1.2-2.1l.5-.4-.6-.2c-.7-.3-1.2-.8-1.6-1.4-.4-.6-.7-1.4-.8-2.2-.2-1.1-.2-2.4.2-3.5.2-.1.3-.1.5-.2l1.5-.3-1-1.2c-.9-1-1.3-2.6-1-4 .2-1.4 1-2.8 2.3-3.5l.6-.3-.2-.6c-.6-2.2.6-4.9 2.8-5.9l.6-.3-.4-.5c-.6-.8-.5-2 .1-3 .1-.1.2-.3.3-.4l.6.1-.1-.6c.6-.5 1.3-.8 2.1-.7v-.2c-.6-.2-1.3-.1-1.9.1-.1 0-.2.1-.3.1-.2-2.3.9-4.8 2.8-6.1 1.9-1.4 4.7-1.6 6.8-.5l.9.5.3-.9c.7-2 2.5-3.6 4.5-4.4 2-.8 4.4-.9 6.4.2l2.4 1.3-1.7-2.1c-1.2-1.4-1.1-3.4.1-4.4zm-30.2 73.1c.6.8 1.3 1.4 2.1 1.8-.7.4-1.3.9-1.8 1.5-.2.2-.3.4-.4.7l-1.5-.6c-1.6-.6-2.8-2.3-2.9-4.1-.1-1.7.8-3.6 2.4-4.5l1.2-.7c-.2.7-.3 1.5-.3 2.3 0 1.3.4 2.6 1.2 3.6zm.5-34.6c-.2.8-.2 1.7-.1 2.5s.3 1.7.8 2.4c.3.6.8 1.2 1.4 1.6-.5.6-.9 1.3-1.2 2-.3.9-.4 1.8-.4 2.8 0 .9.2 1.9.6 2.8.3.7.8 1.4 1.3 1.9-.7.3-1.3.9-1.7 1.6-.5.8-.8 1.7-.9 2.6-.1.9.1 1.9.4 2.7.3.8.8 1.5 1.4 2a5.563 5.563 0 0 0-2.9 3.8l-1.3-.7c-1.5-.8-2.6-2.6-2.5-4.4.1-1.8 1.4-3.6 3.2-4.2l.7-.2-.5-.4c-.9-.7-1.6-1.7-2-2.8s-.5-2.3-.4-3.4.5-2.3 1.2-3.2c.6-1 1.5-1.7 2.5-2.2l.7-.3-.7-.5c-1.3-1.1-1.9-2.9-1.5-4.4.3-1.2 1.3-2.3 2.4-2.8-.3.2-.4.5-.5.8zm119.3 36.1c-.2-.8-.7-1.4-1.4-1.8-.4-.2-.8-.4-1.2-.5 1.2-1.7 1.4-4.1.6-6.1-.8-1.8-2.5-3.2-4.4-3.7 1.2-1.9 1.3-4.4.3-6.6-.7-1.3-1.8-2.3-3-2.9-.7-.3-1.4-.5-2.1-.7 1-2.3.8-4.9-.6-7.1-.9-1.3-2.2-2.3-3.6-2.8-.9-.3-1.8-.5-2.8-.5.3-.9.4-1.8.4-2.8 0-1.5-.4-3-1.1-4.3-.7-1.3-1.6-2.5-2.8-3.5-.9-.8-2-1.3-3.2-1.6.6-2.1.3-4.4-.6-6.3-1-2.1-2.7-3.8-4.9-4.6.2-.8.2-1.8 0-2.6-.2-1-.7-1.9-1.3-2.6s-1.4-1.4-2.2-1.9c-.8-.4-1.7-.6-2.6-.6-.1-1.2-.6-2.3-1.2-3.2-.7-1-1.6-2-2.7-2.7-1.1-.7-2.3-1.2-3.5-1.4-.9-.2-1.9-.2-2.9 0-.1-2.2-1.2-4.3-3.1-5.5-1.1-.7-2.4-1-3.6-1-1 0-1.9.2-2.8.6-.5-.7-1.2-1.3-1.9-1.7-1-.6-2.1-1-3.2-1.1-1.1-.1-2.3 0-3.3.3-.8.3-1.6.7-2.3 1.2-1.2-1.2-2.9-1.9-4.5-2-1.8-.2-3.6.2-5 1.3-.8-.9-2-1.2-3.1-.8-.4.1-.8.4-1.1.7.1-.1.2-.3.3-.4.8-.8 2.1-1.1 3.2-.8l.5.2.1-.5c.2-1.5 1-3 2.5-3.6.7-.3 1.5-.4 2.3-.3.8.1 1.5.5 2.1 1l.4.3.1-.5c.3-1.1 1.3-2.1 2.3-2.2 1.1-.2 2.3.4 2.8 1.3l.6.9.4-1c.5-1.2 1.7-2.2 3.1-2.3s2.8.6 3.6 1.9h.1c-.2-.7-.8-1.4-1.4-1.9s-1.5-.8-2.3-.8c-1.4 0-2.8.7-3.7 1.9-.9-.9-2.2-1.3-3.4-1-1.3.3-2.4 1.4-2.7 2.7-1.4-.7-3.1-.8-4.5-.2-1.4.5-2.7 1.8-3.1 3.3-1.3-.3-2.7.2-3.6 1.2-.9 1.2-1 2.8-.2 4h.1c-.1-.3-.2-.6-.2-.9h.1c0-1.1.8-2.1 1.8-2.3 1-.2 2.1.3 2.5 1.1l.2.5.4-.3c1.3-1 3-1.3 4.7-1.1 1.6.2 3.1 1.1 4 2.4l.5.7.7-.7c1.2-1.3 3.1-1.7 4.9-1.5 1.8.2 3.4 1.3 4.2 2.8l.4.9.8-.5c.8-.5 1.7-.8 2.7-.8.9 0 1.9.2 2.7.7 1.6 1 2.7 2.9 2.6 4.9l-.1.8c-.1-.1-.1-.2-.2-.3-.6-.8-1.3-1.4-2.1-1.9s-1.7-.8-2.6-.8c-.7 0-1.5 0-2.2.3-.2-.5-.4-.9-.7-1.3-.5-.5-1.1-.9-1.7-1.2-.6-.2-1.3-.4-2-.3-.7 0-1.3.3-1.8.7l.1.2c1.1-.6 2.4-.5 3.4 0s1.8 1.6 1.8 2.6v.6c-.2-.2-.5-.3-.7-.4-2-.9-4.4-.7-6.2.5-.9-1.6-2.6-2.7-4.4-2.8-1.8-.1-3.4.6-4.6 1.9-.1-.3-.1-.5-.1-.8v-.2l-.2-.1c-2.2-1.3-5.2-.8-6.8 1l.1.1c1.7-1.4 4.3-1.6 6.1-.5.1.6.1 1.2.2 1.8l.2 1.5.8-1.3c.9-1.5 2.7-2.3 4.3-2.1 1.6.2 3 1.5 3.5 3l.3 1.2.9-.8c1.4-1.2 3.6-1.5 5.2-.8 1.7.8 2.8 2.7 2.7 4.5l-.1 1.6 1.4-.8c1.4-.8 3.3-.6 4.9.3.8.4 1.4 1 1.9 1.7s.8 1.5.8 2.4v.9l.8-.3c1.4-.5 3-.3 4.3.5v.2h.4c.4.3.8.6 1.1.9 1.4 1.6 1.7 4.2.6 6.2l-.2.4.5.1c2.6.3 5 2.2 5.9 4.7.4 1.2.5 2.6.3 3.9-.3 1.3-.9 2.5-1.7 3.4l-.5.6.7.2c2.1.6 3.7 2.5 4.3 4.6.6 2.1.4 4.4-.9 6.1l-.6.7.8.5c1.9 1.2 3.2 3.4 3.6 5.7.4 2.3-.1 4.7-1.6 6.5l-.9 1 1.2.5c2 .9 3.4 3 3.6 5.1.1 2.2-1.1 4.4-2.9 5.5l-2.4 1.4 2.7.5c1.8.3 3.3 2 3.6 3.8.3 1.8-.8 3.9-2.5 4.7l-2.1 1.1 2.2.5c1.5.4 2.6 1.8 3 3.5.4 1.6.1 3.5-1.2 4.6l-1.1 1h1.5c1.8.1 3.5 1.4 4 3.2.5 1.8-.4 4-2 5l.1.2c1.9-.9 3.1-3.2 2.7-5.4-.3-1.8-1.8-3.4-3.6-4 .5-.6.8-1.2 1-1.9.3-1 .4-2.1.2-3.2-.2-1-.6-2.1-1.3-2.9-.3-.4-.8-.8-1.2-1.2 1.6-1.3 2.6-3.5 2.3-5.6-.1-1.4-.8-2.6-1.6-3.6-.4-.5-1-.9-1.6-1.3 1.6-1.6 2.6-3.9 2.4-6.3-.2-2.6-1.7-5-3.9-6.3.5-.9.9-1.9 1.1-2.9.3-1.4.3-2.8 0-4.2-.4-2.5-1.8-4.8-3.9-6.3.5-.9.8-1.9.9-2.9.1-1.3-.1-2.6-.5-3.8s-1.1-2.3-2-3.2c-.7-.8-1.6-1.3-2.6-1.7.7-1 1.2-2.2 1.4-3.4.2-1.4.1-2.9-.4-4.2-.4-1.1-1.1-2-1.9-2.8l.6.1c1.9.3 3.6 1.8 4.5 3.7.9 1.8 1 4.1-.1 5.9l-.2.3.4.1c2.4.6 4.5 2.6 5.2 5 .7 2.4.1 5.1-1.4 6.9l-1.1 1.3 1.7-.2c1.9-.2 3.4 1.7 4.1 3.6.6 2 .4 4.3 1.1 6.7.3 1.2.9 2.5 1.6 3.4.6 1 1.1 1.8 1.1 2.6s-.4 1.7-1 2.5-1.4 1.6-2.2 2.3l-1.8 1.6 2.4.2c2.1.2 4.1 1.8 4.8 3.9.6 2.1-.1 4.6-1.7 6l-1.4 1.2 1.7.4c1.6.4 3 1.6 3.8 3.1.8 1.5 1.1 3.4.4 5l-.3.9.9-.1c1.6-.1 3.3.9 4.1 2.4.8 1.5.6 3.6-.6 5l.1.1c1.4-1.3 1.8-3.5 1.1-5.4-.6-1.6-2.2-2.8-3.9-3.2.6-1.8.4-3.8-.4-5.4-.7-1.5-1.9-2.8-3.4-3.6 1.6-1.9 2.2-4.5 1.5-7-.7-2.2-2.4-4.1-4.5-4.9.4-.4.8-.8 1.1-1.3.7-1 1.4-2.3 1.3-3.8 0-.7-.2-1.4-.5-2.1-.3-.6-.6-1.1-1-1.6-.7-.9-1.1-1.7-1.4-2.8-.6-2-.5-4.4-1.3-6.8-.4-1.2-1.1-2.3-2.1-3.2-.6-.6-1.5-1.1-2.4-1.2 1.1-2.1 1.4-4.7.6-6.9-.9-2.5-3-4.4-5.5-5.2.4-.9.7-1.9.7-2.9 0-1.1-.2-2.2-.7-3.2s-1.1-2-1.9-2.8c-.7-.7-1.5-1.2-2.4-1.5.3-1 .4-2.1.3-3.1-.2-1.2-.6-2.4-1.3-3.4-.7-1-1.6-2-2.6-2.6-.8-.5-1.8-.9-2.7-1 0-1-.3-1.9-.6-2.7-.5-1.1-1.3-2.1-2.2-2.9s-2-1.4-3.1-1.8c-.9-.3-1.9-.4-2.8-.3-.1-.5-.3-.9-.5-1.3l.8-.4c2-.9 4.5-.5 6.4.6 2 1.1 3.6 3.2 3.8 5.5v.3h.3c.9-.1 1.8.1 2.5.5.8.4 1.5 1 2 1.7 1.1 1.4 1.6 3.3.9 5l-.1.3.4.1c2.1.7 3.7 2.5 4.5 4.4.8 2 .9 4.3 0 6.1l-.4.9 1 .2c2.4.4 4.4 2.3 5.4 4.6 1 2.2 1.1 5-.1 7l-1.2 2 2.4-.6c1.1-.3 2.3-.2 3.3.3 1.1.4 2 1.2 2.6 2.1 1.2 1.8 1.1 4.6-.3 6.3l-1.8 2.3 2.8-.6c1.9-.4 4.1.7 5.1 2.4s.7 4.2-.7 5.7l-1.4 1.5 2-.1c1.9-.1 3.8 1.1 4.7 2.8.9 1.7.6 4.1-.6 5.6l-.9 1.1 1.4-.3c1.1-.3 2.5.4 2.9 1.6.4 1.2-.2 2.7-1.4 3.3l.1.2c.9-.1 1.8-1.8 1.4-3.3zm-34.7-55.3c1.2 1.6 1.8 3.9 1.1 5.8l-.2.6c-1.1-1.1-2.5-1.8-4-2.1 1-2.1.8-4.8-.6-6.7-.1-.1-.1-.2-.2-.3.6.1 1.2.3 1.8.6.7.6 1.5 1.3 2.1 2.1zm-8.1-8.8c1.3 1.2 2.2 2.9 2.2 4.6-1.2-.6-2.6-.9-4-.7-.1-.9-.4-1.7-.9-2.4-.6-1-1.4-1.8-2.4-2.3-.9-.6-2-1-3.2-1.1-.7-.1-1.5 0-2.2.2-.3-1.8-1.4-3.4-2.9-4.4l.6-.3c1.4-.6 3-.3 4.2.5 1.2.8 2.1 2.1 2.2 3.5v.9l.9-.2c2.1-.3 4.1.4 5.5 1.7zm-16.4 23.2-.2 1.7-.2 1.7c-.1.6-.2 1.1-.3 1.7.4-1.1.7-2.2.9-3.3l.3-1.7.2-1.7c.3-2.3.3-4.5.2-6.8-.2-2.3-.6-4.5-1.2-6.7s-1.4-4.3-2.5-6.3c.7 2.2 1.3 4.3 1.8 6.5.4 2.2.8 4.4.9 6.6.2 2.2.2 4.5.1 6.7v1.6zm-6.5-21.9c.8 3.3 1.5 6.5 1.8 9.9.3 3.3.2 6.6 0 10 1-3.2 1.3-6.7 1-10.1-.3-3.4-1.2-6.7-2.8-9.8zm-1.6 12c-.5 4.1-1.6 8-3 11.9 2.2-3.6 3.5-7.7 4-11.8.5-4.2.3-8.5-.9-12.4.4 4.1.5 8.2-.1 12.3zM94 50.1c.4-2.1 1-4.1 1.6-6.2-1.1 1.9-1.8 3.9-2.4 6-.6 2.1-.9 4.2-1 6.4-.1 2.2.1 4.3.5 6.5l.3 1.6.4 1.6c.3 1 .7 2 1.2 3-.1-.5-.2-1.1-.4-1.6l-.2-1.6-.3-1.6-.2-1.6c-.2-2.1-.3-4.2-.2-6.3 0-2.1.3-4.1.7-6.2zM82.7 54c-.4 2.3-.7 4.8-.5 7.1l.1 1.8.2 1.8.4 1.8c.2.6.3 1.2.5 1.7-.1-.6-.1-1.2-.2-1.8l-.2-1.8-.1-1.8V61c.1-2.3.3-4.7.7-6.9.4-2.3 1.1-4.5 1.9-6.7.8-2.2 1.9-4.3 3.1-6.3-1.5 1.8-2.8 3.9-3.8 6-1 2.2-1.7 4.5-2.1 6.9zm-1.3-5.3-1 1.3-.9 1.4-.7 1.6c-1 2-1.7 4.1-2.1 6.3-.4 2.2-.5 4.4-.3 6.7.2 2.2.7 4.4 1.6 6.4-.5-2.1-.8-4.3-.8-6.5s.1-4.3.5-6.4c.4-2.1 1-4.2 1.8-6.2l.6-1.5.7-1.5.8-1.4c.3-.5.6-.9.9-1.4-.4.4-.8.8-1.1 1.2zm-8.5 1.9c-2.3 3.3-3.5 7.3-3.8 11.3-.3 4 .4 8.2 2.2 11.7-1.1-3.8-1.5-7.8-1.2-11.7.2-3.8 1.2-7.6 2.8-11.3zm-3.7 3.3c-2.1 3.1-3.4 6.8-4 10.5-.5 3.7-.3 7.6.9 11.2-.4-3.7-.4-7.4.1-11 .5-3.8 1.6-7.3 3-10.7zm62 6.9c-.6-2.6-1.4-5.1-2.5-7.5-1.1-2.4-2.4-4.7-3.9-6.8 1.2 2.3 2.3 4.7 3.2 7.1.9 2.4 1.7 4.9 2.2 7.4.6 2.5 1 5.1 1.2 7.7l.1 1.9.1 1.9v4c.1-.7.2-1.3.3-1.9l.2-2 .1-2v-2c0-2.6-.4-5.3-1-7.8zm3.7 11c0 2.2-.2 4.4-.5 6.7 1-2.1 1.4-4.3 1.5-6.6 0-2.3-.3-4.6-1.3-6.7.2 2.2.4 4.4.3 6.6zm-30.1-3.9c0 .6-.1 1.2-.1 1.8.3-1.2.5-2.3.7-3.5l.3-3.6c.2-2.4.1-4.8-.1-7.2-.2-2.4-.6-4.8-1.2-7.1-.5-2-1.1-4-1.9-5.9l-.3-1.8v1.1s0-.1-.1-.1c0 .1 0 .2.1.2v5.5c-.1 2.2-.2 4.4-.5 6.5-.2 2.2-.6 4.3-1 6.5s-1 4.3-1.5 6.4c.9-2 1.7-4.1 2.3-6.2.6-2.1 1-4.3 1.3-6.5.2-2.2.4-4.4.3-6.7-.1-1-.1-2.1-.2-3.1.3 1.5.7 2.9.9 4.4.4 2.3.7 4.7.9 7 .2 2.3.3 4.7.3 7 0 1.2 0 2.4-.1 3.5l-.1 1.8zm1.4-1.5c-.4 1.2-.8 2.4-1.1 3.8 1-1 1.6-2.2 2-3.4.4-1.3.7-2.6.5-4-.5 1.2-.9 2.4-1.4 3.6zm18.1-2.7v-.2c-.9 1.5-1.6 3-2.2 4.5-.6 1.6-1.2 3.1-1.6 4.8 1.1-1.3 1.9-2.8 2.5-4.4.7-1.4 1.1-3 1.3-4.7.3 1.7.7 3.2 1.1 4.8.4 1.6.8 3.2 1.4 4.8.2-1.7-.1-3.4-.5-5-.3-1.6-1-3.2-2-4.6zM78 72.3c.3-1.9.6-3.8.9-5.6.3-1.8.8-3.6 1.1-5.5-1.1 1.6-1.8 3.5-2.1 5.4-.3 1.8-.3 3.8.1 5.7zm68.6 38.2c1.6-1.5 2.6-3.7 2.4-5.9-.2-2.5-1.7-4.7-3.8-5.8 2-1.3 3.1-3.8 2.6-6.1-.3-1.3-1.1-2.5-2.2-3.3-.8-.6-1.7-1-2.7-1.2 1.9-1.7 2.9-4.4 2.2-7-.4-1.5-1.3-2.8-2.6-3.7-.8-.6-1.8-1-2.8-1.3 1.6-2.8 2.1-6.1 1.6-9.2-.3-1.8-.9-3.5-1.8-5s-2.1-2.9-3.6-3.8l-.1.2c1.2 1.2 2.2 2.6 2.9 4.1.7 1.5 1.1 3.1 1.2 4.8.3 3.3-.6 6.6-2.5 9.1l-1.1 1.4h1.8c2.3 0 4.6 1.6 5.4 3.8.8 2.2 0 5.1-2.1 6.6l-1.2.9 1.4-.2c1.2-.1 2.4.2 3.4.9s1.7 1.8 2 2.9c.2 1.2-.1 2.4-.7 3.4s-1.6 1.8-2.7 2.1l-1.4.4 1.4.6c2.1.9 3.6 3.2 3.6 5.3 0 2.2-1.4 4.3-3.3 5.2l-2.7 1.3 3 .6c.9.2 1.7.7 2.3 1.4.6.7.9 1.6.9 2.5 0 1.7-1.6 3.5-3.3 3.8l-1.9.3 1.2 1.4c1.2 1.3 1.7 3.3 1.4 5.1-.1.9-.5 1.8-.9 2.7s-1.1 1.5-1.9 2l-1.3.8 1.4.5c1.5.5 2.7 2.1 2.7 3.8.1 1.7-1.1 3.4-2.7 4.2l.1.2c1.9-.5 3.4-2.3 3.6-4.4.1-1.7-.7-3.4-2.1-4.4 1.6-1.2 2.6-3 3-5 .2-1.2.2-2.4 0-3.6-.1-.7-.4-1.4-.8-2 .8-.3 1.5-.9 2.1-1.5.9-1 1.5-2.4 1.5-3.8s-.6-2.8-1.5-3.8c-.3-.5-.8-.9-1.4-1.3z" fill="#0c0902" stroke-width="none" opacity="1" stroke="none"></path></g><g id="svga-group-glasses-single-move" transform="matrix(1,0,0,1,0,0)"><g id="svga-group-glasses-single"></g></g></g></g></g><rect id="svga-credit-rect" width="200" height="15" x="0" y="185" fill="#ecf0f1" opacity="0.5" style="display: none;"></rect><text id="svga-credit-text" font-family="Avenir Next, Roboto, Helvetica, Arial, sans-serif" font-size="10px" text-anchor="start" font-weight="400" size="10px" anchor="start" weight="400" fill="#333333" x="33.402061462402344" y="182.71133995056152" style="display: none;"><tspan id="SvgjsTspan26816" dy="13" x="33.402061462402344">Created on AvatarMaker.com</tspan></text></g><defs id="SvgjsDefs26768"></defs></svg>